<?xml version="1.0" encoding="UTF-8"?><svg xmlns="http://www.w3.org/2000/svg" xmlns:xlink="http://www.w3.org/1999/xlink" fill-opacity="1" color-rendering="auto" color-interpolation="auto" text-rendering="auto" stroke="black" stroke-linecap="square" width="572" stroke-miterlimit="10" shape-rendering="auto" stroke-opacity="1" fill="black" stroke-dasharray="none" font-weight="normal" stroke-width="1" height="594" font-family="'Dialog'" font-style="normal" stroke-linejoin="miter" font-size="12px" stroke-dashoffset="0" image-rendering="auto">
  <!--Generated by ySVG 2.5-->
  <defs id="genericDefs"/>
  <g>
    <defs id="defs1">
      <clipPath clipPathUnits="userSpaceOnUse" id="clipPath1">
        <path d="M0 0 L572 0 L572 594 L0 594 L0 0 Z"/>
      </clipPath>
      <clipPath clipPathUnits="userSpaceOnUse" id="clipPath2">
        <path d="M-28.4444 -32 L624.4445 -32 L624.4445 646 L-28.4444 646 L-28.4444 -32 Z"/>
      </clipPath>
      <clipPath clipPathUnits="userSpaceOnUse" id="clipPath3">
        <path d="M-28.9444 -32.6877 L623.9445 -32.6877 L623.9445 645.3124 L-28.9444 645.3124 L-28.9444 -32.6877 Z"/>
      </clipPath>
      <clipPath clipPathUnits="userSpaceOnUse" id="clipPath4">
        <path d="M-0 0 L-0 24 L24 24 L24 0 Z"/>
      </clipPath>
      <clipPath clipPathUnits="userSpaceOnUse" id="clipPath5">
        <path d="M-28.9444 -32.0007 L623.9445 -32.0007 L623.9445 645.9993 L-28.9444 645.9993 L-28.9444 -32.0007 Z"/>
      </clipPath>
      <clipPath clipPathUnits="userSpaceOnUse" id="clipPath6">
        <path d="M-28.9444 -32.523 L623.9445 -32.523 L623.9445 645.477 L-28.9444 645.477 L-28.9444 -32.523 Z"/>
      </clipPath>
      <clipPath clipPathUnits="userSpaceOnUse" id="clipPath7">
        <path d="M-27.9444 -32.3442 L624.9445 -32.3442 L624.9445 645.6558 L-27.9444 645.6558 L-27.9444 -32.3442 Z"/>
      </clipPath>
      <clipPath clipPathUnits="userSpaceOnUse" id="clipPath8">
        <path d="M-0 -0 L-0 24 L24 24 L24 -0 Z"/>
      </clipPath>
      <clipPath clipPathUnits="userSpaceOnUse" id="clipPath9">
        <path d="M-28.9444 -32.3442 L623.9445 -32.3442 L623.9445 645.6558 L-28.9444 645.6558 L-28.9444 -32.3442 Z"/>
      </clipPath>
      <clipPath clipPathUnits="userSpaceOnUse" id="clipPath10">
        <path d="M0 -0 L0 24 L24 24 L24 -0 Z"/>
      </clipPath>
      <clipPath clipPathUnits="userSpaceOnUse" id="clipPath11">
        <path d="M-27.9444 -32.8665 L624.9445 -32.8665 L624.9445 645.1335 L-27.9444 645.1335 L-27.9444 -32.8665 Z"/>
      </clipPath>
      <clipPath clipPathUnits="userSpaceOnUse" id="clipPath12">
        <path d="M-28.9444 -32.8665 L623.9445 -32.8665 L623.9445 645.1335 L-28.9444 645.1335 L-28.9444 -32.8665 Z"/>
      </clipPath>
      <clipPath clipPathUnits="userSpaceOnUse" id="clipPath13">
        <path d="M0 0 L0 24 L24 24 L24 0 Z"/>
      </clipPath>
      <clipPath clipPathUnits="userSpaceOnUse" id="clipPath14">
        <path d="M-0 -0.0001 L-0 24 L24 24 L24 -0.0001 Z"/>
      </clipPath>
      <clipPath clipPathUnits="userSpaceOnUse" id="clipPath15">
        <path d="M-0.0001 -0.0001 L-0.0001 24 L24 24 L24 -0.0001 Z"/>
      </clipPath>
      <clipPath clipPathUnits="userSpaceOnUse" id="clipPath16">
        <path d="M-0.0001 0 L-0.0001 24 L24 24 L24 0 Z"/>
      </clipPath>
      <clipPath clipPathUnits="userSpaceOnUse" id="clipPath17">
        <path d="M-28.4444 -32.7771 L624.4445 -32.7771 L624.4445 645.2229 L-28.4444 645.2229 L-28.4444 -32.7771 Z"/>
      </clipPath>
      <clipPath clipPathUnits="userSpaceOnUse" id="clipPath18">
        <path d="M-28.4444 -32.0383 L624.4445 -32.0383 L624.4445 645.9617 L-28.4444 645.9617 L-28.4444 -32.0383 Z"/>
      </clipPath>
    </defs>
    <g fill="white" stroke="white">
      <path d="M12.1191 583 L12.1191 574.3281 L14.4805 574.3281 Q16.0508 574.3281 16.7363 574.8584 Q17.4219 575.3887 17.4219 576.6016 Q17.4219 577.9844 16.4844 578.7695 Q15.5469 579.5547 13.8828 579.5547 L13.3379 579.5547 L13.3379 583 ZM13.3379 578.623 L13.8359 578.623 Q14.9316 578.623 15.5293 578.1191 Q16.127 577.6152 16.127 576.6953 Q16.127 575.916 15.6582 575.582 Q15.1895 575.248 14.0938 575.248 L13.3379 575.248 ZM21.2773 583.1465 Q19.9121 583.1465 19.0977 582.2412 Q18.2832 581.3359 18.2832 579.8184 Q18.2832 578.2832 19.1006 577.3896 Q19.918 576.4961 21.3184 576.4961 Q22.7188 576.4961 23.5361 577.3896 Q24.3535 578.2832 24.3535 579.8066 Q24.3535 581.3652 23.5332 582.2559 Q22.7129 583.1465 21.2773 583.1465 ZM21.2949 582.2793 Q23.1289 582.2793 23.1289 579.8066 Q23.1289 577.3633 21.3184 577.3633 Q19.5137 577.3633 19.5137 579.8184 Q19.5137 582.2793 21.2949 582.2793 ZM26.8965 583 L25.0742 576.6367 L26.2051 576.6367 L27.5996 581.5645 L29.1055 576.6367 L30.2598 576.6367 L31.5781 581.5645 L33.1777 576.6367 L34.168 576.6367 L32.0938 583 L30.9336 583 L29.5859 578.0723 L28.0625 583 ZM40.0684 582.7949 Q38.9082 583.1465 38.082 583.1465 Q36.6758 583.1465 35.7881 582.2119 Q34.9004 581.2773 34.9004 579.7891 Q34.9004 578.3418 35.6826 577.416 Q36.4648 576.4902 37.6836 576.4902 Q38.8379 576.4902 39.4678 577.3105 Q40.0977 578.1309 40.0977 579.6426 L40.0918 580 L36.0781 580 Q36.3301 582.2676 38.2988 582.2676 Q39.0195 582.2676 40.0684 581.8809 ZM36.1309 579.1328 L38.9375 579.1328 Q38.9375 577.3574 37.6133 577.3574 Q36.2832 577.3574 36.1309 579.1328 ZM42.0898 583 L42.0898 576.6367 L43.2441 576.6367 L43.2441 577.832 Q43.9297 576.4961 45.2363 576.4961 Q45.4121 576.4961 45.6055 576.5254 L45.6055 577.6035 Q45.3066 577.5039 45.0781 577.5039 Q43.9824 577.5039 43.2441 578.8047 L43.2441 583 ZM51.6641 582.7949 Q50.5039 583.1465 49.6777 583.1465 Q48.2715 583.1465 47.3838 582.2119 Q46.4961 581.2773 46.4961 579.7891 Q46.4961 578.3418 47.2783 577.416 Q48.0605 576.4902 49.2793 576.4902 Q50.4336 576.4902 51.0635 577.3105 Q51.6934 578.1309 51.6934 579.6426 L51.6875 580 L47.6738 580 Q47.9258 582.2676 49.8945 582.2676 Q50.6152 582.2676 51.6641 581.8809 ZM47.7266 579.1328 L50.5332 579.1328 Q50.5332 577.3574 49.209 577.3574 Q47.8789 577.3574 47.7266 579.1328 ZM57.7695 583 L57.7695 581.8047 Q57.0664 583.1465 55.6484 583.1465 Q54.5 583.1465 53.8408 582.3086 Q53.1816 581.4707 53.1816 580.0176 Q53.1816 578.4297 53.9287 577.4629 Q54.6758 576.4961 55.8945 576.4961 Q57.0254 576.4961 57.7695 577.3633 L57.7695 573.748 L58.9297 573.748 L58.9297 583 ZM57.7695 578.1543 Q56.873 577.3633 56.0703 577.3633 Q54.4121 577.3633 54.4121 579.9004 Q54.4121 582.1328 55.8887 582.1328 Q56.8496 582.1328 57.7695 581.084 ZM65.0352 583.0703 L65.0352 573.748 L66.1895 573.748 L66.1895 577.832 Q66.8984 576.4961 68.3164 576.4961 Q69.4648 576.4961 70.124 577.334 Q70.7832 578.1719 70.7832 579.625 Q70.7832 581.207 70.0361 582.1768 Q69.2891 583.1465 68.0703 583.1465 Q66.9395 583.1465 66.1895 582.2793 L66.0488 583.0703 ZM66.1895 581.4824 Q67.0801 582.2793 67.8887 582.2793 Q69.5527 582.2793 69.5527 579.7422 Q69.5527 577.5039 68.0762 577.5039 Q67.1094 577.5039 66.1895 578.5527 ZM72.957 585.3145 L73.9883 583 L71.5273 576.6367 L72.7754 576.6367 L74.5977 581.4297 L76.543 576.6367 L77.6328 576.6367 L74.1582 585.3145 ZM83.0234 585.3145 L84.0547 583 L81.5938 576.6367 L82.8418 576.6367 L84.6641 581.4297 L86.6094 576.6367 L87.6992 576.6367 L84.2246 585.3145 ZM88.8887 583 L88.8887 574.3281 L93.7344 574.3281 L93.7344 575.248 L90.1191 575.248 L90.1191 578.1543 L93.1543 578.1543 L93.1543 579.0625 L90.1191 579.0625 L90.1191 583 ZM95.3574 583 L95.3574 576.6367 L96.5117 576.6367 L96.5117 583 ZM95.3574 575.4824 L95.3574 574.3281 L96.5117 574.3281 L96.5117 575.4824 ZM98.8262 583 L98.8262 573.748 L99.9805 573.748 L99.9805 583 ZM106.959 582.7949 Q105.7988 583.1465 104.9727 583.1465 Q103.5664 583.1465 102.6787 582.2119 Q101.791 581.2773 101.791 579.7891 Q101.791 578.3418 102.5732 577.416 Q103.3555 576.4902 104.5742 576.4902 Q105.7285 576.4902 106.3584 577.3105 Q106.9883 578.1309 106.9883 579.6426 L106.9824 580 L102.9688 580 Q103.2207 582.2676 105.1895 582.2676 Q105.9102 582.2676 106.959 581.8809 ZM103.0215 579.1328 L105.8281 579.1328 Q105.8281 577.3574 104.5039 577.3574 Q103.1738 577.3574 103.0215 579.1328 ZM110.668 583.1465 Q109.877 583.1465 108.7461 582.7773 L108.7461 581.7168 Q109.877 582.2793 110.7148 582.2793 Q111.2129 582.2793 111.541 582.0098 Q111.8691 581.7402 111.8691 581.3359 Q111.8691 580.7441 110.9492 580.3574 L110.2754 580.0703 Q108.7812 579.4492 108.7812 578.2832 Q108.7812 577.4512 109.3701 576.9736 Q109.959 576.4961 110.9844 576.4961 Q111.5176 576.4961 112.3027 576.6426 L112.543 576.6895 L112.543 577.6504 Q111.5762 577.3633 111.0078 577.3633 Q109.8945 577.3633 109.8945 578.1719 Q109.8945 578.6934 110.7383 579.0508 L111.2949 579.2852 Q112.2383 579.6836 112.6309 580.126 Q113.0234 580.5684 113.0234 581.2305 Q113.0234 582.0684 112.3613 582.6074 Q111.6992 583.1465 110.668 583.1465 Z" stroke="none" clip-path="url(#clipPath1)"/>
    </g>
    <g fill="silver" stroke="silver">
      <path d="M11.1191 582 L11.1191 573.3281 L13.4805 573.3281 Q15.0508 573.3281 15.7363 573.8584 Q16.4219 574.3887 16.4219 575.6016 Q16.4219 576.9844 15.4844 577.7695 Q14.5469 578.5547 12.8828 578.5547 L12.3379 578.5547 L12.3379 582 ZM12.3379 577.623 L12.8359 577.623 Q13.9316 577.623 14.5293 577.1191 Q15.127 576.6152 15.127 575.6953 Q15.127 574.916 14.6582 574.582 Q14.1895 574.248 13.0938 574.248 L12.3379 574.248 ZM20.2773 582.1465 Q18.9121 582.1465 18.0977 581.2412 Q17.2832 580.3359 17.2832 578.8184 Q17.2832 577.2832 18.1006 576.3896 Q18.918 575.4961 20.3184 575.4961 Q21.7188 575.4961 22.5361 576.3896 Q23.3535 577.2832 23.3535 578.8066 Q23.3535 580.3652 22.5332 581.2559 Q21.7129 582.1465 20.2773 582.1465 ZM20.2949 581.2793 Q22.1289 581.2793 22.1289 578.8066 Q22.1289 576.3633 20.3184 576.3633 Q18.5137 576.3633 18.5137 578.8184 Q18.5137 581.2793 20.2949 581.2793 ZM25.8965 582 L24.0742 575.6367 L25.2051 575.6367 L26.5996 580.5645 L28.1055 575.6367 L29.2598 575.6367 L30.5781 580.5645 L32.1777 575.6367 L33.168 575.6367 L31.0938 582 L29.9336 582 L28.5859 577.0723 L27.0625 582 ZM39.0684 581.7949 Q37.9082 582.1465 37.082 582.1465 Q35.6758 582.1465 34.7881 581.2119 Q33.9004 580.2773 33.9004 578.7891 Q33.9004 577.3418 34.6826 576.416 Q35.4648 575.4902 36.6836 575.4902 Q37.8379 575.4902 38.4678 576.3105 Q39.0977 577.1309 39.0977 578.6426 L39.0918 579 L35.0781 579 Q35.3301 581.2676 37.2988 581.2676 Q38.0195 581.2676 39.0684 580.8809 ZM35.1309 578.1328 L37.9375 578.1328 Q37.9375 576.3574 36.6133 576.3574 Q35.2832 576.3574 35.1309 578.1328 ZM41.0898 582 L41.0898 575.6367 L42.2441 575.6367 L42.2441 576.832 Q42.9297 575.4961 44.2363 575.4961 Q44.4121 575.4961 44.6055 575.5254 L44.6055 576.6035 Q44.3066 576.5039 44.0781 576.5039 Q42.9824 576.5039 42.2441 577.8047 L42.2441 582 ZM50.6641 581.7949 Q49.5039 582.1465 48.6777 582.1465 Q47.2715 582.1465 46.3838 581.2119 Q45.4961 580.2773 45.4961 578.7891 Q45.4961 577.3418 46.2783 576.416 Q47.0605 575.4902 48.2793 575.4902 Q49.4336 575.4902 50.0635 576.3105 Q50.6934 577.1309 50.6934 578.6426 L50.6875 579 L46.6738 579 Q46.9258 581.2676 48.8945 581.2676 Q49.6152 581.2676 50.6641 580.8809 ZM46.7266 578.1328 L49.5332 578.1328 Q49.5332 576.3574 48.209 576.3574 Q46.8789 576.3574 46.7266 578.1328 ZM56.7695 582 L56.7695 580.8047 Q56.0664 582.1465 54.6484 582.1465 Q53.5 582.1465 52.8408 581.3086 Q52.1816 580.4707 52.1816 579.0176 Q52.1816 577.4297 52.9287 576.4629 Q53.6758 575.4961 54.8945 575.4961 Q56.0254 575.4961 56.7695 576.3633 L56.7695 572.748 L57.9297 572.748 L57.9297 582 ZM56.7695 577.1543 Q55.873 576.3633 55.0703 576.3633 Q53.4121 576.3633 53.4121 578.9004 Q53.4121 581.1328 54.8887 581.1328 Q55.8496 581.1328 56.7695 580.084 ZM64.0352 582.0703 L64.0352 572.748 L65.1895 572.748 L65.1895 576.832 Q65.8984 575.4961 67.3164 575.4961 Q68.4648 575.4961 69.124 576.334 Q69.7832 577.1719 69.7832 578.625 Q69.7832 580.207 69.0361 581.1768 Q68.2891 582.1465 67.0703 582.1465 Q65.9395 582.1465 65.1895 581.2793 L65.0488 582.0703 ZM65.1895 580.4824 Q66.0801 581.2793 66.8887 581.2793 Q68.5527 581.2793 68.5527 578.7422 Q68.5527 576.5039 67.0762 576.5039 Q66.1094 576.5039 65.1895 577.5527 ZM71.957 584.3145 L72.9883 582 L70.5273 575.6367 L71.7754 575.6367 L73.5977 580.4297 L75.543 575.6367 L76.6328 575.6367 L73.1582 584.3145 ZM82.0234 584.3145 L83.0547 582 L80.5938 575.6367 L81.8418 575.6367 L83.6641 580.4297 L85.6094 575.6367 L86.6992 575.6367 L83.2246 584.3145 ZM87.8887 582 L87.8887 573.3281 L92.7344 573.3281 L92.7344 574.248 L89.1191 574.248 L89.1191 577.1543 L92.1543 577.1543 L92.1543 578.0625 L89.1191 578.0625 L89.1191 582 ZM94.3574 582 L94.3574 575.6367 L95.5117 575.6367 L95.5117 582 ZM94.3574 574.4824 L94.3574 573.3281 L95.5117 573.3281 L95.5117 574.4824 ZM97.8262 582 L97.8262 572.748 L98.9805 572.748 L98.9805 582 ZM105.959 581.7949 Q104.7988 582.1465 103.9727 582.1465 Q102.5664 582.1465 101.6787 581.2119 Q100.791 580.2773 100.791 578.7891 Q100.791 577.3418 101.5732 576.416 Q102.3555 575.4902 103.5742 575.4902 Q104.7285 575.4902 105.3584 576.3105 Q105.9883 577.1309 105.9883 578.6426 L105.9824 579 L101.9688 579 Q102.2207 581.2676 104.1895 581.2676 Q104.9102 581.2676 105.959 580.8809 ZM102.0215 578.1328 L104.8281 578.1328 Q104.8281 576.3574 103.5039 576.3574 Q102.1738 576.3574 102.0215 578.1328 ZM109.668 582.1465 Q108.877 582.1465 107.7461 581.7773 L107.7461 580.7168 Q108.877 581.2793 109.7148 581.2793 Q110.2129 581.2793 110.541 581.0098 Q110.8691 580.7402 110.8691 580.3359 Q110.8691 579.7441 109.9492 579.3574 L109.2754 579.0703 Q107.7812 578.4492 107.7812 577.2832 Q107.7812 576.4512 108.3701 575.9736 Q108.959 575.4961 109.9844 575.4961 Q110.5176 575.4961 111.3027 575.6426 L111.543 575.6895 L111.543 576.6504 Q110.5762 576.3633 110.0078 576.3633 Q108.8945 576.3633 108.8945 577.1719 Q108.8945 577.6934 109.7383 578.0508 L110.2949 578.2852 Q111.2383 578.6836 111.6309 579.126 Q112.0234 579.5684 112.0234 580.2305 Q112.0234 581.0684 111.3613 581.6074 Q110.6992 582.1465 109.668 582.1465 Z" stroke="none" clip-path="url(#clipPath1)"/>
    </g>
    <g fill="rgb(255,255,204)" transform="matrix(0.8761,0,0,0.8761,24.9204,28.0354)" stroke="rgb(255,255,204)">
      <rect x="201.5" width="197" height="358.0908" y="170.9546" clip-path="url(#clipPath2)" stroke="none"/>
    </g>
    <g fill="gray" stroke-miterlimit="1.45" transform="matrix(0.8761,0,0,0.8761,24.9204,28.0354)" stroke-linecap="butt" stroke="gray">
      <rect fill="none" x="201.5" width="197" height="358.0908" y="170.9546" clip-path="url(#clipPath2)"/>
    </g>
    <g stroke-miterlimit="1.45" font-size="13px" font-family="'Inter'" transform="matrix(0.8761,0,0,0.8761,24.9204,28.0354)" stroke-linecap="butt">
      <text x="270.5" xml:space="preserve" y="189.5484" clip-path="url(#clipPath2)" stroke="none">character</text>
    </g>
    <g fill="gray" transform="matrix(0.8761,0,0,0.8761,24.9204,28.0354)" stroke="gray">
      <line y2="196" fill="none" x1="202" clip-path="url(#clipPath2)" x2="397" y1="196"/>
    </g>
    <g stroke-linecap="round" transform="matrix(0.5841,0,0,0.5841,204.9602,202.983)" fill="silver" image-rendering="optimizeQuality" stroke-linejoin="round" stroke="silver" stroke-width="2" stroke-miterlimit="4">
      <path fill="none" d="M12.4 2.7 C13.3 1.8 14.9 1.8 15.8 2.7 L21.3 8.2 C22.2 9.1 22.2 10.7 21.3 11.6 L17.6 15.3 C16.7 16.2 15.1 16.2 14.2 15.3 L8.7 9.8 C7.8 8.9 7.8 7.3 8.7 6.4 Z" clip-path="url(#clipPath4)"/>
    </g>
    <g stroke-linecap="round" transform="matrix(0.5841,0,0,0.5841,204.9602,202.983)" fill="silver" image-rendering="optimizeQuality" stroke-linejoin="round" stroke="silver" stroke-width="2" stroke-miterlimit="4">
      <path fill="none" d="M14 7 L17 10" clip-path="url(#clipPath4)"/>
    </g>
    <g stroke-linecap="round" transform="matrix(0.5841,0,0,0.5841,204.9602,202.983)" fill="silver" image-rendering="optimizeQuality" stroke-linejoin="round" stroke="silver" stroke-width="2" stroke-miterlimit="4">
      <path fill="none" d="M9.4 10.6 L2 18 L2 21 C2 21.6 2.4 22 3 22 L7 22 L7 19 L10 19 L10 16 L12 16 L13.4 14.6" clip-path="url(#clipPath4)"/>
    </g>
    <g stroke-miterlimit="1.45" font-family="'Inter'" transform="matrix(0.8761,0,0,0.8761,24.9204,28.0354)" stroke-linecap="butt">
      <text x="227.5" xml:space="preserve" y="214.3123" clip-path="url(#clipPath2)" stroke="none">id</text>
    </g>
    <g stroke-miterlimit="1.45" font-family="'Inter'" transform="matrix(0.8761,0,0,0.8761,24.9204,28.0354)" stroke-linecap="butt">
      <text x="317.5" xml:space="preserve" y="214.3123" clip-path="url(#clipPath2)" stroke="none">INTEGER</text>
      <text x="227.5" xml:space="preserve" y="234.8347" clip-path="url(#clipPath2)" font-weight="bold" stroke="none">name</text>
      <text x="317.5" xml:space="preserve" y="234.8347" clip-path="url(#clipPath2)" stroke="none">TEXT</text>
      <text x="227.5" xml:space="preserve" y="255.3571" clip-path="url(#clipPath2)" font-weight="bold" stroke="none">status</text>
      <text x="317.5" xml:space="preserve" y="255.3571" clip-path="url(#clipPath2)" stroke="none">TEXT</text>
      <text x="227.5" xml:space="preserve" y="275.8794" clip-path="url(#clipPath2)" font-weight="bold" stroke="none">species</text>
      <text x="317.5" xml:space="preserve" y="275.8794" clip-path="url(#clipPath2)" stroke="none">TEXT</text>
      <text x="227.5" xml:space="preserve" y="296.4018" clip-path="url(#clipPath2)" stroke="none">type</text>
      <text x="317.5" xml:space="preserve" y="296.4018" clip-path="url(#clipPath2)" stroke="none">TEXT</text>
      <text x="227.5" xml:space="preserve" y="316.9241" clip-path="url(#clipPath2)" font-weight="bold" stroke="none">gender</text>
      <text x="317.5" xml:space="preserve" y="316.9241" clip-path="url(#clipPath2)" stroke="none">TEXT</text>
      <text x="227.5" xml:space="preserve" y="337.4465" clip-path="url(#clipPath2)" font-weight="bold" stroke="none">origin_name</text>
      <text x="317.5" xml:space="preserve" y="337.4465" clip-path="url(#clipPath2)" stroke="none">TEXT</text>
      <text x="227.5" xml:space="preserve" y="357.9689" clip-path="url(#clipPath2)" stroke="none">origin_url</text>
      <text x="317.5" xml:space="preserve" y="357.9689" clip-path="url(#clipPath2)" stroke="none">TEXT</text>
      <text x="227.5" xml:space="preserve" y="378.4912" clip-path="url(#clipPath2)" font-weight="bold" stroke="none">location_name</text>
      <text x="317.5" xml:space="preserve" y="378.4912" clip-path="url(#clipPath2)" stroke="none">TEXT</text>
      <text x="227.5" xml:space="preserve" y="399.0136" clip-path="url(#clipPath2)" stroke="none">location_url</text>
      <text x="317.5" xml:space="preserve" y="399.0136" clip-path="url(#clipPath2)" stroke="none">TEXT</text>
      <text x="227.5" xml:space="preserve" y="419.5359" clip-path="url(#clipPath2)" font-weight="bold" stroke="none">image</text>
      <text x="317.5" xml:space="preserve" y="419.5359" clip-path="url(#clipPath2)" stroke="none">TEXT</text>
      <text x="227.5" xml:space="preserve" y="440.0583" clip-path="url(#clipPath2)" font-weight="bold" stroke="none">episode</text>
      <text x="317.5" xml:space="preserve" y="440.0583" clip-path="url(#clipPath2)" stroke="none">TEXT</text>
      <text x="227.5" xml:space="preserve" y="460.5807" clip-path="url(#clipPath2)" font-weight="bold" stroke="none">url</text>
      <text x="317.5" xml:space="preserve" y="460.5807" clip-path="url(#clipPath2)" stroke="none">TEXT</text>
      <text x="227.5" xml:space="preserve" y="481.103" clip-path="url(#clipPath2)" font-weight="bold" stroke="none">created</text>
      <text x="317.5" xml:space="preserve" y="481.103" clip-path="url(#clipPath2)" stroke="none">TEXT</text>
      <text x="227.5" xml:space="preserve" y="501.6254" clip-path="url(#clipPath2)" stroke="none">origin_id_</text>
      <text x="317.5" xml:space="preserve" y="501.6254" clip-path="url(#clipPath2)" stroke="none">INTEGER</text>
    </g>
    <g stroke-linecap="round" transform="matrix(0.5841,0,0,0.5841,354.7743,454.6997)" fill="silver" image-rendering="optimizeQuality" stroke-linejoin="round" stroke="silver" stroke-width="2" stroke-miterlimit="4">
      <path fill="none" d="M7 7 L17 7 L17 17" clip-path="url(#clipPath4)"/>
    </g>
    <g stroke-linecap="round" transform="matrix(0.5841,0,0,0.5841,354.7743,454.6997)" fill="silver" image-rendering="optimizeQuality" stroke-linejoin="round" stroke="silver" stroke-width="2" stroke-miterlimit="4">
      <path fill="none" d="M7 17 L17 7" clip-path="url(#clipPath4)"/>
    </g>
    <g stroke-miterlimit="1.45" font-family="'Inter'" transform="matrix(0.8761,0,0,0.8761,24.9204,28.0354)" stroke-linecap="butt">
      <text x="227.5" xml:space="preserve" y="522.1477" clip-path="url(#clipPath2)" stroke="none">location_id_</text>
    </g>
    <g stroke-miterlimit="1.45" font-family="'Inter'" transform="matrix(0.8761,0,0,0.8761,24.9204,28.0354)" stroke-linecap="butt">
      <text x="317.5" xml:space="preserve" y="522.1477" clip-path="url(#clipPath2)" stroke="none">INTEGER</text>
    </g>
    <g stroke-linecap="round" transform="matrix(0.5841,0,0,0.5841,354.7743,472.6795)" fill="silver" image-rendering="optimizeQuality" stroke-linejoin="round" stroke="silver" stroke-width="2" stroke-miterlimit="4">
      <path fill="none" d="M7 7 L17 7 L17 17" clip-path="url(#clipPath4)"/>
    </g>
    <g stroke-linecap="round" transform="matrix(0.5841,0,0,0.5841,354.7743,472.6795)" fill="silver" image-rendering="optimizeQuality" stroke-linejoin="round" stroke="silver" stroke-width="2" stroke-miterlimit="4">
      <path fill="none" d="M7 17 L17 7" clip-path="url(#clipPath4)"/>
    </g>
    <g fill="rgb(255,255,204)" transform="matrix(0.8761,0,0,0.8761,24.9204,28.0354)" stroke="rgb(255,255,204)">
      <rect x="-18.5" width="187" height="70.7777" y="314.6111" clip-path="url(#clipPath2)" stroke="none"/>
    </g>
    <g fill="gray" stroke-miterlimit="1.45" transform="matrix(0.8761,0,0,0.8761,24.9204,28.0354)" stroke-linecap="butt" stroke="gray">
      <rect fill="none" x="-18.5" width="187" height="70.7777" y="314.6111" clip-path="url(#clipPath2)"/>
    </g>
    <g stroke-miterlimit="1.45" font-size="13px" font-family="'Inter'" transform="matrix(0.8761,0,0,0.8761,24.9204,28.0354)" stroke-linecap="butt">
      <text x="17.5" xml:space="preserve" y="333.2049" clip-path="url(#clipPath2)" stroke="none">character_episode</text>
    </g>
    <g fill="gray" transform="matrix(0.8761,0,0,0.8761,24.9204,28.0354)" stroke="gray">
      <line y2="340" fill="none" x1="-17" clip-path="url(#clipPath2)" x2="167" y1="340"/>
    </g>
    <g stroke-linecap="round" transform="matrix(0.5841,0,0,0.5841,12.2168,328.8413)" fill="silver" image-rendering="optimizeQuality" stroke-linejoin="round" stroke="silver" stroke-width="2" stroke-miterlimit="4">
      <path fill="none" d="M12.4 2.7 C13.3 1.8 14.9 1.8 15.8 2.7 L21.3 8.2 C22.2 9.1 22.2 10.7 21.3 11.6 L17.6 15.3 C16.7 16.2 15.1 16.2 14.2 15.3 L8.7 9.8 C7.8 8.9 7.8 7.3 8.7 6.4 Z" clip-path="url(#clipPath8)"/>
    </g>
    <g stroke-linecap="round" transform="matrix(0.5841,0,0,0.5841,12.2168,328.8413)" fill="silver" image-rendering="optimizeQuality" stroke-linejoin="round" stroke="silver" stroke-width="2" stroke-miterlimit="4">
      <path fill="none" d="M14 7 L17 10" clip-path="url(#clipPath8)"/>
    </g>
    <g stroke-linecap="round" transform="matrix(0.5841,0,0,0.5841,12.2168,328.8413)" fill="silver" image-rendering="optimizeQuality" stroke-linejoin="round" stroke="silver" stroke-width="2" stroke-miterlimit="4">
      <path fill="none" d="M9.4 10.6 L2 18 L2 21 C2 21.6 2.4 22 3 22 L7 22 L7 19 L10 19 L10 16 L12 16 L13.4 14.6" clip-path="url(#clipPath8)"/>
    </g>
    <g stroke-miterlimit="1.45" font-weight="bold" font-family="'Inter'" transform="matrix(0.8761,0,0,0.8761,24.9204,28.0354)" stroke-linecap="butt">
      <text x="7.5" xml:space="preserve" y="357.9689" clip-path="url(#clipPath2)" stroke="none">character_id</text>
    </g>
    <g stroke-miterlimit="1.45" font-family="'Inter'" transform="matrix(0.8761,0,0,0.8761,24.9204,28.0354)" stroke-linecap="butt">
      <text x="87.5" xml:space="preserve" y="357.9689" clip-path="url(#clipPath2)" stroke="none">INTEGER</text>
    </g>
    <g stroke-linecap="round" transform="matrix(0.5841,0,0,0.5841,153.2699,328.8413)" fill="silver" image-rendering="optimizeQuality" stroke-linejoin="round" stroke="silver" stroke-width="2" stroke-miterlimit="4">
      <path fill="none" d="M7 7 L17 7 L17 17" clip-path="url(#clipPath10)"/>
    </g>
    <g stroke-linecap="round" transform="matrix(0.5841,0,0,0.5841,153.2699,328.8413)" fill="silver" image-rendering="optimizeQuality" stroke-linejoin="round" stroke="silver" stroke-width="2" stroke-miterlimit="4">
      <path fill="none" d="M7 17 L17 7" clip-path="url(#clipPath10)"/>
    </g>
    <g stroke-linecap="round" transform="matrix(0.5841,0,0,0.5841,12.2168,346.8211)" fill="silver" image-rendering="optimizeQuality" stroke-linejoin="round" stroke="silver" stroke-width="2" stroke-miterlimit="4">
      <path fill="none" d="M12.4 2.7 C13.3 1.8 14.9 1.8 15.8 2.7 L21.3 8.2 C22.2 9.1 22.2 10.7 21.3 11.6 L17.6 15.3 C16.7 16.2 15.1 16.2 14.2 15.3 L8.7 9.8 C7.8 8.9 7.8 7.3 8.7 6.4 Z" clip-path="url(#clipPath4)"/>
    </g>
    <g stroke-linecap="round" transform="matrix(0.5841,0,0,0.5841,12.2168,346.8211)" fill="silver" image-rendering="optimizeQuality" stroke-linejoin="round" stroke="silver" stroke-width="2" stroke-miterlimit="4">
      <path fill="none" d="M14 7 L17 10" clip-path="url(#clipPath4)"/>
    </g>
    <g stroke-linecap="round" transform="matrix(0.5841,0,0,0.5841,12.2168,346.8211)" fill="silver" image-rendering="optimizeQuality" stroke-linejoin="round" stroke="silver" stroke-width="2" stroke-miterlimit="4">
      <path fill="none" d="M9.4 10.6 L2 18 L2 21 C2 21.6 2.4 22 3 22 L7 22 L7 19 L10 19 L10 16 L12 16 L13.4 14.6" clip-path="url(#clipPath4)"/>
    </g>
    <g stroke-miterlimit="1.45" font-weight="bold" font-family="'Inter'" transform="matrix(0.8761,0,0,0.8761,24.9204,28.0354)" stroke-linecap="butt">
      <text x="7.5" xml:space="preserve" y="378.4912" clip-path="url(#clipPath2)" stroke="none">episode_id</text>
    </g>
    <g stroke-miterlimit="1.45" font-family="'Inter'" transform="matrix(0.8761,0,0,0.8761,24.9204,28.0354)" stroke-linecap="butt">
      <text x="87.5" xml:space="preserve" y="378.4912" clip-path="url(#clipPath2)" stroke="none">INTEGER</text>
    </g>
    <g stroke-linecap="round" transform="matrix(0.5841,0,0,0.5841,153.2699,346.8211)" fill="silver" image-rendering="optimizeQuality" stroke-linejoin="round" stroke="silver" stroke-width="2" stroke-miterlimit="4">
      <path fill="none" d="M7 7 L17 7 L17 17" clip-path="url(#clipPath13)"/>
    </g>
    <g stroke-linecap="round" transform="matrix(0.5841,0,0,0.5841,153.2699,346.8211)" fill="silver" image-rendering="optimizeQuality" stroke-linejoin="round" stroke="silver" stroke-width="2" stroke-miterlimit="4">
      <path fill="none" d="M7 17 L17 7" clip-path="url(#clipPath13)"/>
    </g>
    <g fill="rgb(255,255,204)" transform="matrix(0.8761,0,0,0.8761,24.9204,28.0354)" stroke="rgb(255,255,204)">
      <rect x="206.5" width="187" height="70.7777" y="39.6111" clip-path="url(#clipPath2)" stroke="none"/>
    </g>
    <g fill="gray" stroke-miterlimit="1.45" transform="matrix(0.8761,0,0,0.8761,24.9204,28.0354)" stroke-linecap="butt" stroke="gray">
      <rect fill="none" x="206.5" width="187" height="70.7777" y="39.6111" clip-path="url(#clipPath2)"/>
    </g>
    <g stroke-miterlimit="1.45" font-size="13px" font-family="'Inter'" transform="matrix(0.8761,0,0,0.8761,24.9204,28.0354)" stroke-linecap="butt">
      <text x="242.5" xml:space="preserve" y="58.2049" clip-path="url(#clipPath2)" stroke="none">episode_character</text>
    </g>
    <g fill="gray" transform="matrix(0.8761,0,0,0.8761,24.9204,28.0354)" stroke="gray">
      <line y2="65" fill="none" x1="207" clip-path="url(#clipPath2)" x2="392" y1="65"/>
    </g>
    <g stroke-linecap="round" transform="matrix(0.5841,0,0,0.5841,209.3407,87.9121)" fill="silver" image-rendering="optimizeQuality" stroke-linejoin="round" stroke="silver" stroke-width="2" stroke-miterlimit="4">
      <path fill="none" d="M12.4 2.7 C13.3 1.8 14.9 1.8 15.8 2.7 L21.3 8.2 C22.2 9.1 22.2 10.7 21.3 11.6 L17.6 15.3 C16.7 16.2 15.1 16.2 14.2 15.3 L8.7 9.8 C7.8 8.9 7.8 7.3 8.7 6.4 Z" clip-path="url(#clipPath13)"/>
    </g>
    <g stroke-linecap="round" transform="matrix(0.5841,0,0,0.5841,209.3407,87.9121)" fill="silver" image-rendering="optimizeQuality" stroke-linejoin="round" stroke="silver" stroke-width="2" stroke-miterlimit="4">
      <path fill="none" d="M14 7 L17 10" clip-path="url(#clipPath13)"/>
    </g>
    <g stroke-linecap="round" transform="matrix(0.5841,0,0,0.5841,209.3407,87.9121)" fill="silver" image-rendering="optimizeQuality" stroke-linejoin="round" stroke="silver" stroke-width="2" stroke-miterlimit="4">
      <path fill="none" d="M9.4 10.6 L2 18 L2 21 C2 21.6 2.4 22 3 22 L7 22 L7 19 L10 19 L10 16 L12 16 L13.4 14.6" clip-path="url(#clipPath13)"/>
    </g>
    <g stroke-miterlimit="1.45" font-weight="bold" font-family="'Inter'" transform="matrix(0.8761,0,0,0.8761,24.9204,28.0354)" stroke-linecap="butt">
      <text x="232.5" xml:space="preserve" y="82.9689" clip-path="url(#clipPath2)" stroke="none">episode_id</text>
    </g>
    <g stroke-miterlimit="1.45" font-family="'Inter'" transform="matrix(0.8761,0,0,0.8761,24.9204,28.0354)" stroke-linecap="butt">
      <text x="312.5" xml:space="preserve" y="82.9689" clip-path="url(#clipPath2)" stroke="none">INTEGER</text>
    </g>
    <g stroke-linecap="round" transform="matrix(0.5841,0,0,0.5841,350.3938,87.9121)" fill="silver" image-rendering="optimizeQuality" stroke-linejoin="round" stroke="silver" stroke-width="2" stroke-miterlimit="4">
      <path fill="none" d="M7 7 L17 7 L17 17" clip-path="url(#clipPath4)"/>
    </g>
    <g stroke-linecap="round" transform="matrix(0.5841,0,0,0.5841,350.3938,87.9121)" fill="silver" image-rendering="optimizeQuality" stroke-linejoin="round" stroke="silver" stroke-width="2" stroke-miterlimit="4">
      <path fill="none" d="M7 17 L17 7" clip-path="url(#clipPath4)"/>
    </g>
    <g stroke-linecap="round" transform="matrix(0.5841,0,0,0.5841,209.3407,105.8919)" fill="silver" image-rendering="optimizeQuality" stroke-linejoin="round" stroke="silver" stroke-width="2" stroke-miterlimit="4">
      <path fill="none" d="M12.4 2.7 C13.3 1.8 14.9 1.8 15.8 2.7 L21.3 8.2 C22.2 9.1 22.2 10.7 21.3 11.6 L17.6 15.3 C16.7 16.2 15.1 16.2 14.2 15.3 L8.7 9.8 C7.8 8.9 7.8 7.3 8.7 6.4 Z" clip-path="url(#clipPath10)"/>
    </g>
    <g stroke-linecap="round" transform="matrix(0.5841,0,0,0.5841,209.3407,105.8919)" fill="silver" image-rendering="optimizeQuality" stroke-linejoin="round" stroke="silver" stroke-width="2" stroke-miterlimit="4">
      <path fill="none" d="M14 7 L17 10" clip-path="url(#clipPath10)"/>
    </g>
    <g stroke-linecap="round" transform="matrix(0.5841,0,0,0.5841,209.3407,105.8919)" fill="silver" image-rendering="optimizeQuality" stroke-linejoin="round" stroke="silver" stroke-width="2" stroke-miterlimit="4">
      <path fill="none" d="M9.4 10.6 L2 18 L2 21 C2 21.6 2.4 22 3 22 L7 22 L7 19 L10 19 L10 16 L12 16 L13.4 14.6" clip-path="url(#clipPath10)"/>
    </g>
    <g stroke-miterlimit="1.45" font-weight="bold" font-family="'Inter'" transform="matrix(0.8761,0,0,0.8761,24.9204,28.0354)" stroke-linecap="butt">
      <text x="232.5" xml:space="preserve" y="103.4912" clip-path="url(#clipPath2)" stroke="none">character_id</text>
    </g>
    <g stroke-miterlimit="1.45" font-family="'Inter'" transform="matrix(0.8761,0,0,0.8761,24.9204,28.0354)" stroke-linecap="butt">
      <text x="312.5" xml:space="preserve" y="103.4912" clip-path="url(#clipPath2)" stroke="none">INTEGER</text>
    </g>
    <g stroke-linecap="round" transform="matrix(0.5841,0,0,0.5841,350.3938,105.8919)" fill="silver" image-rendering="optimizeQuality" stroke-linejoin="round" stroke="silver" stroke-width="2" stroke-miterlimit="4">
      <path fill="none" d="M7 7 L17 7 L17 17" clip-path="url(#clipPath8)"/>
    </g>
    <g stroke-linecap="round" transform="matrix(0.5841,0,0,0.5841,350.3938,105.8919)" fill="silver" image-rendering="optimizeQuality" stroke-linejoin="round" stroke="silver" stroke-width="2" stroke-miterlimit="4">
      <path fill="none" d="M7 17 L17 7" clip-path="url(#clipPath8)"/>
    </g>
    <g fill="rgb(255,255,204)" transform="matrix(0.8761,0,0,0.8761,24.9204,28.0354)" stroke="rgb(255,255,204)">
      <rect x="435.5" width="179" height="70.7777" y="564.6111" clip-path="url(#clipPath2)" stroke="none"/>
    </g>
    <g fill="gray" stroke-miterlimit="1.45" transform="matrix(0.8761,0,0,0.8761,24.9204,28.0354)" stroke-linecap="butt" stroke="gray">
      <rect fill="none" x="435.5" width="179" height="70.7777" y="564.6111" clip-path="url(#clipPath2)"/>
    </g>
    <g stroke-miterlimit="1.45" font-size="13px" font-family="'Inter'" transform="matrix(0.8761,0,0,0.8761,24.9204,28.0354)" stroke-linecap="butt">
      <text x="471.5" xml:space="preserve" y="583.205" clip-path="url(#clipPath2)" stroke="none">location_resident</text>
    </g>
    <g fill="gray" transform="matrix(0.8761,0,0,0.8761,24.9204,28.0354)" stroke="gray">
      <line y2="590" fill="none" x1="436" clip-path="url(#clipPath2)" x2="613" y1="590"/>
    </g>
    <g stroke-linecap="round" transform="matrix(0.5841,0,0,0.5841,409.969,547.8679)" fill="silver" image-rendering="optimizeQuality" stroke-linejoin="round" stroke="silver" stroke-width="2" stroke-miterlimit="4">
      <path fill="none" d="M12.4 2.7 C13.3 1.8 14.9 1.8 15.8 2.7 L21.3 8.2 C22.2 9.1 22.2 10.7 21.3 11.6 L17.6 15.3 C16.7 16.2 15.1 16.2 14.2 15.3 L8.7 9.8 C7.8 8.9 7.8 7.3 8.7 6.4 Z" clip-path="url(#clipPath14)"/>
    </g>
    <g stroke-linecap="round" transform="matrix(0.5841,0,0,0.5841,409.969,547.8679)" fill="silver" image-rendering="optimizeQuality" stroke-linejoin="round" stroke="silver" stroke-width="2" stroke-miterlimit="4">
      <path fill="none" d="M14 7 L17 10" clip-path="url(#clipPath14)"/>
    </g>
    <g stroke-linecap="round" transform="matrix(0.5841,0,0,0.5841,409.969,547.8679)" fill="silver" image-rendering="optimizeQuality" stroke-linejoin="round" stroke="silver" stroke-width="2" stroke-miterlimit="4">
      <path fill="none" d="M9.4 10.6 L2 18 L2 21 C2 21.6 2.4 22 3 22 L7 22 L7 19 L10 19 L10 16 L12 16 L13.4 14.6" clip-path="url(#clipPath14)"/>
    </g>
    <g stroke-miterlimit="1.45" font-weight="bold" font-family="'Inter'" transform="matrix(0.8761,0,0,0.8761,24.9204,28.0354)" stroke-linecap="butt">
      <text x="461.5" xml:space="preserve" y="607.9689" clip-path="url(#clipPath2)" stroke="none">location_id</text>
    </g>
    <g stroke-miterlimit="1.45" font-family="'Inter'" transform="matrix(0.8761,0,0,0.8761,24.9204,28.0354)" stroke-linecap="butt">
      <text x="533.5" xml:space="preserve" y="607.9689" clip-path="url(#clipPath2)" stroke="none">INTEGER</text>
    </g>
    <g stroke-linecap="round" transform="matrix(0.5841,0,0,0.5841,544.0133,547.8679)" fill="silver" image-rendering="optimizeQuality" stroke-linejoin="round" stroke="silver" stroke-width="2" stroke-miterlimit="4">
      <path fill="none" d="M7 7 L17 7 L17 17" clip-path="url(#clipPath15)"/>
    </g>
    <g stroke-linecap="round" transform="matrix(0.5841,0,0,0.5841,544.0133,547.8679)" fill="silver" image-rendering="optimizeQuality" stroke-linejoin="round" stroke="silver" stroke-width="2" stroke-miterlimit="4">
      <path fill="none" d="M7 17 L17 7" clip-path="url(#clipPath15)"/>
    </g>
    <g stroke-linecap="round" transform="matrix(0.5841,0,0,0.5841,409.969,565.8477)" fill="silver" image-rendering="optimizeQuality" stroke-linejoin="round" stroke="silver" stroke-width="2" stroke-miterlimit="4">
      <path fill="none" d="M12.4 2.7 C13.3 1.8 14.9 1.8 15.8 2.7 L21.3 8.2 C22.2 9.1 22.2 10.7 21.3 11.6 L17.6 15.3 C16.7 16.2 15.1 16.2 14.2 15.3 L8.7 9.8 C7.8 8.9 7.8 7.3 8.7 6.4 Z" clip-path="url(#clipPath4)"/>
    </g>
    <g stroke-linecap="round" transform="matrix(0.5841,0,0,0.5841,409.969,565.8477)" fill="silver" image-rendering="optimizeQuality" stroke-linejoin="round" stroke="silver" stroke-width="2" stroke-miterlimit="4">
      <path fill="none" d="M14 7 L17 10" clip-path="url(#clipPath4)"/>
    </g>
    <g stroke-linecap="round" transform="matrix(0.5841,0,0,0.5841,409.969,565.8477)" fill="silver" image-rendering="optimizeQuality" stroke-linejoin="round" stroke="silver" stroke-width="2" stroke-miterlimit="4">
      <path fill="none" d="M9.4 10.6 L2 18 L2 21 C2 21.6 2.4 22 3 22 L7 22 L7 19 L10 19 L10 16 L12 16 L13.4 14.6" clip-path="url(#clipPath4)"/>
    </g>
    <g stroke-miterlimit="1.45" font-weight="bold" font-family="'Inter'" transform="matrix(0.8761,0,0,0.8761,24.9204,28.0354)" stroke-linecap="butt">
      <text x="461.5" xml:space="preserve" y="628.4912" clip-path="url(#clipPath2)" stroke="none">resident_id</text>
    </g>
    <g stroke-miterlimit="1.45" font-family="'Inter'" transform="matrix(0.8761,0,0,0.8761,24.9204,28.0354)" stroke-linecap="butt">
      <text x="533.5" xml:space="preserve" y="628.4912" clip-path="url(#clipPath2)" stroke="none">INTEGER</text>
    </g>
    <g stroke-linecap="round" transform="matrix(0.5841,0,0,0.5841,544.0133,565.8477)" fill="silver" image-rendering="optimizeQuality" stroke-linejoin="round" stroke="silver" stroke-width="2" stroke-miterlimit="4">
      <path fill="none" d="M7 7 L17 7 L17 17" clip-path="url(#clipPath16)"/>
    </g>
    <g stroke-linecap="round" transform="matrix(0.5841,0,0,0.5841,544.0133,565.8477)" fill="silver" image-rendering="optimizeQuality" stroke-linejoin="round" stroke="silver" stroke-width="2" stroke-miterlimit="4">
      <path fill="none" d="M7 17 L17 7" clip-path="url(#clipPath16)"/>
    </g>
    <g fill="rgb(255,255,204)" transform="matrix(0.8761,0,0,0.8761,24.9204,28.0354)" stroke="rgb(255,255,204)">
      <rect x="-12" width="174" height="193.9119" y="-21.9559" clip-path="url(#clipPath2)" stroke="none"/>
    </g>
    <g fill="gray" stroke-miterlimit="1.45" transform="matrix(0.8761,0,0,0.8761,24.9204,28.0354)" stroke-linecap="butt" stroke="gray">
      <rect fill="none" x="-12" width="174" height="193.9119" y="-21.9559" clip-path="url(#clipPath2)"/>
    </g>
    <g stroke-miterlimit="1.45" font-size="13px" font-family="'Inter'" transform="matrix(0.8761,0,0,0.8761,24.9204,28.0354)" stroke-linecap="butt">
      <text x="50" xml:space="preserve" y="-3.3621" clip-path="url(#clipPath2)" stroke="none">episode</text>
    </g>
    <g fill="gray" transform="matrix(0.8761,0,0,0.8761,24.9204,28.0354)" stroke="gray">
      <line y2="3" fill="none" x1="-11" clip-path="url(#clipPath2)" x2="161" y1="3"/>
    </g>
    <g stroke-linecap="round" transform="matrix(0.5841,0,0,0.5841,17.9115,33.9728)" fill="silver" image-rendering="optimizeQuality" stroke-linejoin="round" stroke="silver" stroke-width="2" stroke-miterlimit="4">
      <path fill="none" d="M12.4 2.7 C13.3 1.8 14.9 1.8 15.8 2.7 L21.3 8.2 C22.2 9.1 22.2 10.7 21.3 11.6 L17.6 15.3 C16.7 16.2 15.1 16.2 14.2 15.3 L8.7 9.8 C7.8 8.9 7.8 7.3 8.7 6.4 Z" clip-path="url(#clipPath13)"/>
    </g>
    <g stroke-linecap="round" transform="matrix(0.5841,0,0,0.5841,17.9115,33.9728)" fill="silver" image-rendering="optimizeQuality" stroke-linejoin="round" stroke="silver" stroke-width="2" stroke-miterlimit="4">
      <path fill="none" d="M14 7 L17 10" clip-path="url(#clipPath13)"/>
    </g>
    <g stroke-linecap="round" transform="matrix(0.5841,0,0,0.5841,17.9115,33.9728)" fill="silver" image-rendering="optimizeQuality" stroke-linejoin="round" stroke="silver" stroke-width="2" stroke-miterlimit="4">
      <path fill="none" d="M9.4 10.6 L2 18 L2 21 C2 21.6 2.4 22 3 22 L7 22 L7 19 L10 19 L10 16 L12 16 L13.4 14.6" clip-path="url(#clipPath13)"/>
    </g>
    <g stroke-miterlimit="1.45" font-family="'Inter'" transform="matrix(0.8761,0,0,0.8761,24.9204,28.0354)" stroke-linecap="butt">
      <text x="14" xml:space="preserve" y="21.4018" clip-path="url(#clipPath2)" stroke="none">id</text>
    </g>
    <g stroke-miterlimit="1.45" font-family="'Inter'" transform="matrix(0.8761,0,0,0.8761,24.9204,28.0354)" stroke-linecap="butt">
      <text x="97" xml:space="preserve" y="21.4018" clip-path="url(#clipPath2)" stroke="none">INTEGER</text>
      <text x="14" xml:space="preserve" y="41.9241" clip-path="url(#clipPath2)" font-weight="bold" stroke="none">name</text>
      <text x="97" xml:space="preserve" y="41.9241" clip-path="url(#clipPath2)" stroke="none">TEXT</text>
      <text x="14" xml:space="preserve" y="62.4465" clip-path="url(#clipPath2)" font-weight="bold" stroke="none">air_date</text>
      <text x="97" xml:space="preserve" y="62.4465" clip-path="url(#clipPath2)" stroke="none">TEXT</text>
      <text x="14" xml:space="preserve" y="82.9689" clip-path="url(#clipPath2)" font-weight="bold" stroke="none">episode</text>
      <text x="97" xml:space="preserve" y="82.9689" clip-path="url(#clipPath2)" stroke="none">TEXT</text>
      <text x="14" xml:space="preserve" y="103.4912" clip-path="url(#clipPath2)" font-weight="bold" stroke="none">characters</text>
      <text x="97" xml:space="preserve" y="103.4912" clip-path="url(#clipPath2)" stroke="none">TEXT</text>
      <text x="14" xml:space="preserve" y="124.0136" clip-path="url(#clipPath2)" font-weight="bold" stroke="none">url</text>
      <text x="97" xml:space="preserve" y="124.0136" clip-path="url(#clipPath2)" stroke="none">TEXT</text>
      <text x="14" xml:space="preserve" y="144.5359" clip-path="url(#clipPath2)" font-weight="bold" stroke="none">created</text>
      <text x="97" xml:space="preserve" y="144.5359" clip-path="url(#clipPath2)" stroke="none">TEXT</text>
      <text x="14" xml:space="preserve" y="165.0583" clip-path="url(#clipPath2)" font-weight="bold" stroke="none">air_date_iso_</text>
      <text x="97" xml:space="preserve" y="165.0583" clip-path="url(#clipPath2)" stroke="none">TEXT</text>
    </g>
    <g fill="rgb(255,255,204)" transform="matrix(0.8761,0,0,0.8761,24.9204,28.0354)" stroke="rgb(255,255,204)">
      <rect x="448" width="154" height="173.3895" y="263.3052" clip-path="url(#clipPath2)" stroke="none"/>
    </g>
    <g fill="gray" stroke-miterlimit="1.45" transform="matrix(0.8761,0,0,0.8761,24.9204,28.0354)" stroke-linecap="butt" stroke="gray">
      <rect fill="none" x="448" width="154" height="173.3895" y="263.3052" clip-path="url(#clipPath2)"/>
    </g>
    <g stroke-miterlimit="1.45" font-size="13px" font-family="'Inter'" transform="matrix(0.8761,0,0,0.8761,24.9204,28.0354)" stroke-linecap="butt">
      <text x="500.5" xml:space="preserve" y="281.899" clip-path="url(#clipPath2)" stroke="none">location</text>
    </g>
    <g fill="gray" transform="matrix(0.8761,0,0,0.8761,24.9204,28.0354)" stroke="gray">
      <line y2="289" fill="none" x1="449" clip-path="url(#clipPath2)" x2="601" y1="289"/>
    </g>
    <g stroke-linecap="round" transform="matrix(0.5841,0,0,0.5841,420.9204,283.8919)" fill="silver" image-rendering="optimizeQuality" stroke-linejoin="round" stroke="silver" stroke-width="2" stroke-miterlimit="4">
      <path fill="none" d="M12.4 2.7 C13.3 1.8 14.9 1.8 15.8 2.7 L21.3 8.2 C22.2 9.1 22.2 10.7 21.3 11.6 L17.6 15.3 C16.7 16.2 15.1 16.2 14.2 15.3 L8.7 9.8 C7.8 8.9 7.8 7.3 8.7 6.4 Z" clip-path="url(#clipPath4)"/>
    </g>
    <g stroke-linecap="round" transform="matrix(0.5841,0,0,0.5841,420.9204,283.8919)" fill="silver" image-rendering="optimizeQuality" stroke-linejoin="round" stroke="silver" stroke-width="2" stroke-miterlimit="4">
      <path fill="none" d="M14 7 L17 10" clip-path="url(#clipPath4)"/>
    </g>
    <g stroke-linecap="round" transform="matrix(0.5841,0,0,0.5841,420.9204,283.8919)" fill="silver" image-rendering="optimizeQuality" stroke-linejoin="round" stroke="silver" stroke-width="2" stroke-miterlimit="4">
      <path fill="none" d="M9.4 10.6 L2 18 L2 21 C2 21.6 2.4 22 3 22 L7 22 L7 19 L10 19 L10 16 L12 16 L13.4 14.6" clip-path="url(#clipPath4)"/>
    </g>
    <g stroke-miterlimit="1.45" font-family="'Inter'" transform="matrix(0.8761,0,0,0.8761,24.9204,28.0354)" stroke-linecap="butt">
      <text x="474" xml:space="preserve" y="306.663" clip-path="url(#clipPath2)" stroke="none">id</text>
    </g>
    <g stroke-miterlimit="1.45" font-family="'Inter'" transform="matrix(0.8761,0,0,0.8761,24.9204,28.0354)" stroke-linecap="butt">
      <text x="537" xml:space="preserve" y="306.663" clip-path="url(#clipPath2)" stroke="none">INTEGER</text>
      <text x="474" xml:space="preserve" y="327.1853" clip-path="url(#clipPath2)" font-weight="bold" stroke="none">name</text>
      <text x="537" xml:space="preserve" y="327.1853" clip-path="url(#clipPath2)" stroke="none">TEXT</text>
      <text x="474" xml:space="preserve" y="347.7077" clip-path="url(#clipPath2)" stroke="none">type</text>
      <text x="537" xml:space="preserve" y="347.7077" clip-path="url(#clipPath2)" stroke="none">TEXT</text>
      <text x="474" xml:space="preserve" y="368.23" clip-path="url(#clipPath2)" stroke="none">dimension</text>
      <text x="537" xml:space="preserve" y="368.23" clip-path="url(#clipPath2)" stroke="none">TEXT</text>
      <text x="474" xml:space="preserve" y="388.7524" clip-path="url(#clipPath2)" stroke="none">residents</text>
      <text x="537" xml:space="preserve" y="388.7524" clip-path="url(#clipPath2)" stroke="none">TEXT</text>
      <text x="474" xml:space="preserve" y="409.2747" clip-path="url(#clipPath2)" font-weight="bold" stroke="none">url</text>
      <text x="537" xml:space="preserve" y="409.2747" clip-path="url(#clipPath2)" stroke="none">TEXT</text>
      <text x="474" xml:space="preserve" y="429.7971" clip-path="url(#clipPath2)" font-weight="bold" stroke="none">created</text>
      <text x="537" xml:space="preserve" y="429.7971" clip-path="url(#clipPath2)" stroke="none">TEXT</text>
    </g>
    <g fill="gray" stroke-miterlimit="1.45" transform="matrix(0.8761,0,0,0.8761,24.9204,28.0354)" stroke-linecap="butt" stroke="gray">
      <path fill="none" d="M168.5322 350 L193.4678 350" clip-path="url(#clipPath2)"/>
    </g>
    <g fill="gray" stroke-miterlimit="1.45" transform="matrix(0.8761,0,0,0.8761,24.9204,28.0354)" stroke-linecap="butt" stroke="gray">
      <path d="M201.4678 350 L189.4678 345 L192.4678 350 L189.4678 355 Z" stroke="none" clip-path="url(#clipPath2)"/>
      <path fill="none" d="M300 110.4184 L300 162.9251" clip-path="url(#clipPath2)"/>
      <path d="M300 170.9251 L305 158.9251 L300 161.9251 L295 158.9251 Z" clip-path="url(#clipPath2)" stroke="none"/>
      <path fill="none" d="M435.4669 600 L300 600 L300 537.08" clip-path="url(#clipPath2)"/>
      <path d="M300 529.08 L295 541.08 L300 538.08 L305 541.08 Z" clip-path="url(#clipPath2)" stroke="none"/>
      <path fill="none" d="M75 314.5763 L75 179.9908" clip-path="url(#clipPath2)"/>
      <path d="M75 171.9908 L70 183.9908 L75 180.9908 L80 183.9908 Z" clip-path="url(#clipPath2)" stroke="none"/>
      <path fill="none" d="M206.4565 75 L170.0434 75" clip-path="url(#clipPath2)"/>
      <path d="M162.0434 75 L174.0434 80 L171.0434 75 L174.0434 70 Z" clip-path="url(#clipPath2)" stroke="none"/>
      <path fill="none" d="M398.5483 350 L439.9517 350" clip-path="url(#clipPath2)"/>
      <path d="M447.9517 350 L435.9517 345 L438.9517 350 L435.9517 355 Z" clip-path="url(#clipPath2)" stroke="none"/>
      <path fill="none" d="M525 564.5799 L525 444.726" clip-path="url(#clipPath2)"/>
      <path d="M525 436.726 L520 448.726 L525 445.726 L530 448.726 Z" clip-path="url(#clipPath2)" stroke="none"/>
    </g>
  </g>
</svg>
