<?xml version="1.0" encoding="UTF-8"?><svg xmlns="http://www.w3.org/2000/svg" xmlns:xlink="http://www.w3.org/1999/xlink" fill-opacity="1" color-rendering="auto" color-interpolation="auto" text-rendering="auto" stroke="black" stroke-linecap="square" width="654" stroke-miterlimit="10" shape-rendering="auto" stroke-opacity="1" fill="black" stroke-dasharray="none" font-weight="normal" stroke-width="1" height="342" font-family="'Dialog'" font-style="normal" stroke-linejoin="miter" font-size="12px" stroke-dashoffset="0" image-rendering="auto">
  <!--Generated by ySVG 2.5-->
  <defs id="genericDefs"/>
  <g>
    <defs id="defs1">
      <clipPath clipPathUnits="userSpaceOnUse" id="clipPath1">
        <path d="M0 0 L654 0 L654 342 L0 342 L0 0 Z"/>
      </clipPath>
      <clipPath clipPathUnits="userSpaceOnUse" id="clipPath2">
        <path d="M-29 -21 L625 -21 L625 321 L-29 321 L-29 -21 Z"/>
      </clipPath>
      <clipPath clipPathUnits="userSpaceOnUse" id="clipPath3">
        <path d="M-29 -21.083 L625 -21.083 L625 320.917 L-29 320.917 L-29 -21.083 Z"/>
      </clipPath>
      <clipPath clipPathUnits="userSpaceOnUse" id="clipPath4">
        <path d="M0 0 L0 24 L24 24 L24 0 Z"/>
      </clipPath>
      <clipPath clipPathUnits="userSpaceOnUse" id="clipPath5">
        <path d="M-29 -21.6053 L625 -21.6053 L625 320.3947 L-29 320.3947 L-29 -21.6053 Z"/>
      </clipPath>
      <clipPath clipPathUnits="userSpaceOnUse" id="clipPath6">
        <path d="M0 -0 L0 24 L24 24 L24 -0 Z"/>
      </clipPath>
      <clipPath clipPathUnits="userSpaceOnUse" id="clipPath7">
        <path d="M-29 -21.1277 L625 -21.1277 L625 320.8723 L-29 320.8723 L-29 -21.1277 Z"/>
      </clipPath>
      <clipPath clipPathUnits="userSpaceOnUse" id="clipPath8">
        <path d="M-28.5 -21.3442 L625.5 -21.3442 L625.5 320.6559 L-28.5 320.6559 L-28.5 -21.3442 Z"/>
      </clipPath>
      <clipPath clipPathUnits="userSpaceOnUse" id="clipPath9">
        <path d="M-29.5 -21.3442 L624.5 -21.3442 L624.5 320.6559 L-29.5 320.6559 L-29.5 -21.3442 Z"/>
      </clipPath>
      <clipPath clipPathUnits="userSpaceOnUse" id="clipPath10">
        <path d="M-28.5 -21.8665 L625.5 -21.8665 L625.5 320.1335 L-28.5 320.1335 L-28.5 -21.8665 Z"/>
      </clipPath>
      <clipPath clipPathUnits="userSpaceOnUse" id="clipPath11">
        <path d="M-29.5 -21.8665 L624.5 -21.8665 L624.5 320.1335 L-29.5 320.1335 L-29.5 -21.8665 Z"/>
      </clipPath>
    </defs>
    <g fill="white" stroke="white">
      <path d="M12.1191 331 L12.1191 322.3281 L14.4805 322.3281 Q16.0508 322.3281 16.7363 322.8584 Q17.4219 323.3887 17.4219 324.6016 Q17.4219 325.9844 16.4844 326.7695 Q15.5469 327.5547 13.8828 327.5547 L13.3379 327.5547 L13.3379 331 ZM13.3379 326.623 L13.8359 326.623 Q14.9316 326.623 15.5293 326.1191 Q16.127 325.6152 16.127 324.6953 Q16.127 323.916 15.6582 323.582 Q15.1895 323.248 14.0938 323.248 L13.3379 323.248 ZM21.2773 331.1465 Q19.9121 331.1465 19.0977 330.2412 Q18.2832 329.3359 18.2832 327.8184 Q18.2832 326.2832 19.1006 325.3896 Q19.918 324.4961 21.3184 324.4961 Q22.7188 324.4961 23.5361 325.3896 Q24.3535 326.2832 24.3535 327.8066 Q24.3535 329.3652 23.5332 330.2559 Q22.7129 331.1465 21.2773 331.1465 ZM21.2949 330.2793 Q23.1289 330.2793 23.1289 327.8066 Q23.1289 325.3633 21.3184 325.3633 Q19.5137 325.3633 19.5137 327.8184 Q19.5137 330.2793 21.2949 330.2793 ZM26.8965 331 L25.0742 324.6367 L26.2051 324.6367 L27.5996 329.5645 L29.1055 324.6367 L30.2598 324.6367 L31.5781 329.5645 L33.1777 324.6367 L34.168 324.6367 L32.0938 331 L30.9336 331 L29.5859 326.0723 L28.0625 331 ZM40.0684 330.7949 Q38.9082 331.1465 38.082 331.1465 Q36.6758 331.1465 35.7881 330.2119 Q34.9004 329.2773 34.9004 327.7891 Q34.9004 326.3418 35.6826 325.416 Q36.4648 324.4902 37.6836 324.4902 Q38.8379 324.4902 39.4678 325.3105 Q40.0977 326.1309 40.0977 327.6426 L40.0918 328 L36.0781 328 Q36.3301 330.2676 38.2988 330.2676 Q39.0195 330.2676 40.0684 329.8809 ZM36.1309 327.1328 L38.9375 327.1328 Q38.9375 325.3574 37.6133 325.3574 Q36.2832 325.3574 36.1309 327.1328 ZM42.0898 331 L42.0898 324.6367 L43.2441 324.6367 L43.2441 325.832 Q43.9297 324.4961 45.2363 324.4961 Q45.4121 324.4961 45.6055 324.5254 L45.6055 325.6035 Q45.3066 325.5039 45.0781 325.5039 Q43.9824 325.5039 43.2441 326.8047 L43.2441 331 ZM51.6641 330.7949 Q50.5039 331.1465 49.6777 331.1465 Q48.2715 331.1465 47.3838 330.2119 Q46.4961 329.2773 46.4961 327.7891 Q46.4961 326.3418 47.2783 325.416 Q48.0605 324.4902 49.2793 324.4902 Q50.4336 324.4902 51.0635 325.3105 Q51.6934 326.1309 51.6934 327.6426 L51.6875 328 L47.6738 328 Q47.9258 330.2676 49.8945 330.2676 Q50.6152 330.2676 51.6641 329.8809 ZM47.7266 327.1328 L50.5332 327.1328 Q50.5332 325.3574 49.209 325.3574 Q47.8789 325.3574 47.7266 327.1328 ZM57.7695 331 L57.7695 329.8047 Q57.0664 331.1465 55.6484 331.1465 Q54.5 331.1465 53.8408 330.3086 Q53.1816 329.4707 53.1816 328.0176 Q53.1816 326.4297 53.9287 325.4629 Q54.6758 324.4961 55.8945 324.4961 Q57.0254 324.4961 57.7695 325.3633 L57.7695 321.748 L58.9297 321.748 L58.9297 331 ZM57.7695 326.1543 Q56.873 325.3633 56.0703 325.3633 Q54.4121 325.3633 54.4121 327.9004 Q54.4121 330.1328 55.8887 330.1328 Q56.8496 330.1328 57.7695 329.084 ZM65.0352 331.0703 L65.0352 321.748 L66.1895 321.748 L66.1895 325.832 Q66.8984 324.4961 68.3164 324.4961 Q69.4648 324.4961 70.124 325.334 Q70.7832 326.1719 70.7832 327.625 Q70.7832 329.207 70.0361 330.1768 Q69.2891 331.1465 68.0703 331.1465 Q66.9395 331.1465 66.1895 330.2793 L66.0488 331.0703 ZM66.1895 329.4824 Q67.0801 330.2793 67.8887 330.2793 Q69.5527 330.2793 69.5527 327.7422 Q69.5527 325.5039 68.0762 325.5039 Q67.1094 325.5039 66.1895 326.5527 ZM72.957 333.3145 L73.9883 331 L71.5273 324.6367 L72.7754 324.6367 L74.5977 329.4297 L76.543 324.6367 L77.6328 324.6367 L74.1582 333.3145 ZM83.0234 333.3145 L84.0547 331 L81.5938 324.6367 L82.8418 324.6367 L84.6641 329.4297 L86.6094 324.6367 L87.6992 324.6367 L84.2246 333.3145 ZM88.8887 331 L88.8887 322.3281 L93.7344 322.3281 L93.7344 323.248 L90.1191 323.248 L90.1191 326.1543 L93.1543 326.1543 L93.1543 327.0625 L90.1191 327.0625 L90.1191 331 ZM95.3574 331 L95.3574 324.6367 L96.5117 324.6367 L96.5117 331 ZM95.3574 323.4824 L95.3574 322.3281 L96.5117 322.3281 L96.5117 323.4824 ZM98.8262 331 L98.8262 321.748 L99.9805 321.748 L99.9805 331 ZM106.959 330.7949 Q105.7988 331.1465 104.9727 331.1465 Q103.5664 331.1465 102.6787 330.2119 Q101.791 329.2773 101.791 327.7891 Q101.791 326.3418 102.5732 325.416 Q103.3555 324.4902 104.5742 324.4902 Q105.7285 324.4902 106.3584 325.3105 Q106.9883 326.1309 106.9883 327.6426 L106.9824 328 L102.9688 328 Q103.2207 330.2676 105.1895 330.2676 Q105.9102 330.2676 106.959 329.8809 ZM103.0215 327.1328 L105.8281 327.1328 Q105.8281 325.3574 104.5039 325.3574 Q103.1738 325.3574 103.0215 327.1328 ZM110.668 331.1465 Q109.877 331.1465 108.7461 330.7773 L108.7461 329.7168 Q109.877 330.2793 110.7148 330.2793 Q111.2129 330.2793 111.541 330.0098 Q111.8691 329.7402 111.8691 329.3359 Q111.8691 328.7441 110.9492 328.3574 L110.2754 328.0703 Q108.7812 327.4492 108.7812 326.2832 Q108.7812 325.4512 109.3701 324.9736 Q109.959 324.4961 110.9844 324.4961 Q111.5176 324.4961 112.3027 324.6426 L112.543 324.6895 L112.543 325.6504 Q111.5762 325.3633 111.0078 325.3633 Q109.8945 325.3633 109.8945 326.1719 Q109.8945 326.6934 110.7383 327.0508 L111.2949 327.2852 Q112.2383 327.6836 112.6309 328.126 Q113.0234 328.5684 113.0234 329.2305 Q113.0234 330.0684 112.3613 330.6074 Q111.6992 331.1465 110.668 331.1465 Z" stroke="none" clip-path="url(#clipPath1)"/>
    </g>
    <g fill="silver" stroke="silver">
      <path d="M11.1191 330 L11.1191 321.3281 L13.4805 321.3281 Q15.0508 321.3281 15.7363 321.8584 Q16.4219 322.3887 16.4219 323.6016 Q16.4219 324.9844 15.4844 325.7695 Q14.5469 326.5547 12.8828 326.5547 L12.3379 326.5547 L12.3379 330 ZM12.3379 325.623 L12.8359 325.623 Q13.9316 325.623 14.5293 325.1191 Q15.127 324.6152 15.127 323.6953 Q15.127 322.916 14.6582 322.582 Q14.1895 322.248 13.0938 322.248 L12.3379 322.248 ZM20.2773 330.1465 Q18.9121 330.1465 18.0977 329.2412 Q17.2832 328.3359 17.2832 326.8184 Q17.2832 325.2832 18.1006 324.3896 Q18.918 323.4961 20.3184 323.4961 Q21.7188 323.4961 22.5361 324.3896 Q23.3535 325.2832 23.3535 326.8066 Q23.3535 328.3652 22.5332 329.2559 Q21.7129 330.1465 20.2773 330.1465 ZM20.2949 329.2793 Q22.1289 329.2793 22.1289 326.8066 Q22.1289 324.3633 20.3184 324.3633 Q18.5137 324.3633 18.5137 326.8184 Q18.5137 329.2793 20.2949 329.2793 ZM25.8965 330 L24.0742 323.6367 L25.2051 323.6367 L26.5996 328.5645 L28.1055 323.6367 L29.2598 323.6367 L30.5781 328.5645 L32.1777 323.6367 L33.168 323.6367 L31.0938 330 L29.9336 330 L28.5859 325.0723 L27.0625 330 ZM39.0684 329.7949 Q37.9082 330.1465 37.082 330.1465 Q35.6758 330.1465 34.7881 329.2119 Q33.9004 328.2773 33.9004 326.7891 Q33.9004 325.3418 34.6826 324.416 Q35.4648 323.4902 36.6836 323.4902 Q37.8379 323.4902 38.4678 324.3105 Q39.0977 325.1309 39.0977 326.6426 L39.0918 327 L35.0781 327 Q35.3301 329.2676 37.2988 329.2676 Q38.0195 329.2676 39.0684 328.8809 ZM35.1309 326.1328 L37.9375 326.1328 Q37.9375 324.3574 36.6133 324.3574 Q35.2832 324.3574 35.1309 326.1328 ZM41.0898 330 L41.0898 323.6367 L42.2441 323.6367 L42.2441 324.832 Q42.9297 323.4961 44.2363 323.4961 Q44.4121 323.4961 44.6055 323.5254 L44.6055 324.6035 Q44.3066 324.5039 44.0781 324.5039 Q42.9824 324.5039 42.2441 325.8047 L42.2441 330 ZM50.6641 329.7949 Q49.5039 330.1465 48.6777 330.1465 Q47.2715 330.1465 46.3838 329.2119 Q45.4961 328.2773 45.4961 326.7891 Q45.4961 325.3418 46.2783 324.416 Q47.0605 323.4902 48.2793 323.4902 Q49.4336 323.4902 50.0635 324.3105 Q50.6934 325.1309 50.6934 326.6426 L50.6875 327 L46.6738 327 Q46.9258 329.2676 48.8945 329.2676 Q49.6152 329.2676 50.6641 328.8809 ZM46.7266 326.1328 L49.5332 326.1328 Q49.5332 324.3574 48.209 324.3574 Q46.8789 324.3574 46.7266 326.1328 ZM56.7695 330 L56.7695 328.8047 Q56.0664 330.1465 54.6484 330.1465 Q53.5 330.1465 52.8408 329.3086 Q52.1816 328.4707 52.1816 327.0176 Q52.1816 325.4297 52.9287 324.4629 Q53.6758 323.4961 54.8945 323.4961 Q56.0254 323.4961 56.7695 324.3633 L56.7695 320.748 L57.9297 320.748 L57.9297 330 ZM56.7695 325.1543 Q55.873 324.3633 55.0703 324.3633 Q53.4121 324.3633 53.4121 326.9004 Q53.4121 329.1328 54.8887 329.1328 Q55.8496 329.1328 56.7695 328.084 ZM64.0352 330.0703 L64.0352 320.748 L65.1895 320.748 L65.1895 324.832 Q65.8984 323.4961 67.3164 323.4961 Q68.4648 323.4961 69.124 324.334 Q69.7832 325.1719 69.7832 326.625 Q69.7832 328.207 69.0361 329.1768 Q68.2891 330.1465 67.0703 330.1465 Q65.9395 330.1465 65.1895 329.2793 L65.0488 330.0703 ZM65.1895 328.4824 Q66.0801 329.2793 66.8887 329.2793 Q68.5527 329.2793 68.5527 326.7422 Q68.5527 324.5039 67.0762 324.5039 Q66.1094 324.5039 65.1895 325.5527 ZM71.957 332.3145 L72.9883 330 L70.5273 323.6367 L71.7754 323.6367 L73.5977 328.4297 L75.543 323.6367 L76.6328 323.6367 L73.1582 332.3145 ZM82.0234 332.3145 L83.0547 330 L80.5938 323.6367 L81.8418 323.6367 L83.6641 328.4297 L85.6094 323.6367 L86.6992 323.6367 L83.2246 332.3145 ZM87.8887 330 L87.8887 321.3281 L92.7344 321.3281 L92.7344 322.248 L89.1191 322.248 L89.1191 325.1543 L92.1543 325.1543 L92.1543 326.0625 L89.1191 326.0625 L89.1191 330 ZM94.3574 330 L94.3574 323.6367 L95.5117 323.6367 L95.5117 330 ZM94.3574 322.4824 L94.3574 321.3281 L95.5117 321.3281 L95.5117 322.4824 ZM97.8262 330 L97.8262 320.748 L98.9805 320.748 L98.9805 330 ZM105.959 329.7949 Q104.7988 330.1465 103.9727 330.1465 Q102.5664 330.1465 101.6787 329.2119 Q100.791 328.2773 100.791 326.7891 Q100.791 325.3418 101.5732 324.416 Q102.3555 323.4902 103.5742 323.4902 Q104.7285 323.4902 105.3584 324.3105 Q105.9883 325.1309 105.9883 326.6426 L105.9824 327 L101.9688 327 Q102.2207 329.2676 104.1895 329.2676 Q104.9102 329.2676 105.959 328.8809 ZM102.0215 326.1328 L104.8281 326.1328 Q104.8281 324.3574 103.5039 324.3574 Q102.1738 324.3574 102.0215 326.1328 ZM109.668 330.1465 Q108.877 330.1465 107.7461 329.7773 L107.7461 328.7168 Q108.877 329.2793 109.7148 329.2793 Q110.2129 329.2793 110.541 329.0098 Q110.8691 328.7402 110.8691 328.3359 Q110.8691 327.7441 109.9492 327.3574 L109.2754 327.0703 Q107.7812 326.4492 107.7812 325.2832 Q107.7812 324.4512 108.3701 323.9736 Q108.959 323.4961 109.9844 323.4961 Q110.5176 323.4961 111.3027 323.6426 L111.543 323.6895 L111.543 324.6504 Q110.5762 324.3633 110.0078 324.3633 Q108.8945 324.3633 108.8945 325.1719 Q108.8945 325.6934 109.7383 326.0508 L110.2949 326.2852 Q111.2383 326.6836 111.6309 327.126 Q112.0234 327.5684 112.0234 328.2305 Q112.0234 329.0684 111.3613 329.6074 Q110.6992 330.1465 109.668 330.1465 Z" stroke="none" clip-path="url(#clipPath1)"/>
    </g>
    <g fill="rgb(255,255,204)" transform="matrix(1,0,0,1,29,21)" stroke="rgb(255,255,204)">
      <rect x="211" width="178" height="91.3001" y="104.3499" clip-path="url(#clipPath2)" stroke="none"/>
    </g>
    <g fill="gray" stroke-miterlimit="1.45" transform="matrix(1,0,0,1,29,21)" stroke-linecap="butt" stroke="gray">
      <rect fill="none" x="211" width="178" height="91.3001" y="104.3499" clip-path="url(#clipPath2)"/>
    </g>
    <g stroke-miterlimit="1.45" font-size="13px" font-family="'Inter'" transform="matrix(1,0,0,1,29,21)" stroke-linecap="butt">
      <text x="270.5" xml:space="preserve" y="122.9438" clip-path="url(#clipPath2)" stroke="none">character</text>
    </g>
    <g fill="gray" transform="matrix(1,0,0,1,29,21)" stroke="gray">
      <line y2="130" fill="none" x1="212" clip-path="url(#clipPath2)" x2="388" y1="130"/>
    </g>
    <g stroke-linecap="round" transform="matrix(0.6667,0,0,0.6667,244,154.083)" fill="rgb(110,110,110)" image-rendering="optimizeQuality" stroke-linejoin="round" stroke="rgb(110,110,110)" stroke-width="2" stroke-miterlimit="4">
      <path fill="none" d="M12.4 2.7 C13.3 1.8 14.9 1.8 15.8 2.7 L21.3 8.2 C22.2 9.1 22.2 10.7 21.3 11.6 L17.6 15.3 C16.7 16.2 15.1 16.2 14.2 15.3 L8.7 9.8 C7.8 8.9 7.8 7.3 8.7 6.4 Z" clip-path="url(#clipPath4)"/>
    </g>
    <g stroke-linecap="round" transform="matrix(0.6667,0,0,0.6667,244,154.083)" fill="rgb(110,110,110)" image-rendering="optimizeQuality" stroke-linejoin="round" stroke="rgb(110,110,110)" stroke-width="2" stroke-miterlimit="4">
      <path fill="none" d="M14 7 L17 10" clip-path="url(#clipPath4)"/>
    </g>
    <g stroke-linecap="round" transform="matrix(0.6667,0,0,0.6667,244,154.083)" fill="rgb(110,110,110)" image-rendering="optimizeQuality" stroke-linejoin="round" stroke="rgb(110,110,110)" stroke-width="2" stroke-miterlimit="4">
      <path fill="none" d="M9.4 10.6 L2 18 L2 21 C2 21.6 2.4 22 3 22 L7 22 L7 19 L10 19 L10 16 L12 16 L13.4 14.6" clip-path="url(#clipPath4)"/>
    </g>
    <g stroke-miterlimit="1.45" font-weight="bold" font-family="'Inter'" transform="matrix(1,0,0,1,29,21)" stroke-linecap="butt">
      <text x="237" xml:space="preserve" y="147.7077" clip-path="url(#clipPath2)" stroke="none">id</text>
    </g>
    <g stroke-miterlimit="1.45" font-family="'Inter'" transform="matrix(1,0,0,1,29,21)" stroke-linecap="butt">
      <text x="308" xml:space="preserve" y="147.7077" clip-path="url(#clipPath2)" stroke="none">INTEGER</text>
      <text x="237" xml:space="preserve" y="168.23" clip-path="url(#clipPath2)" stroke="none">origin_id_</text>
      <text x="308" xml:space="preserve" y="168.23" clip-path="url(#clipPath2)" stroke="none">INTEGER</text>
    </g>
    <g stroke-linecap="round" transform="matrix(0.6667,0,0,0.6667,396,174.6053)" fill="rgb(110,110,110)" image-rendering="optimizeQuality" stroke-linejoin="round" stroke="rgb(110,110,110)" stroke-width="2" stroke-miterlimit="4">
      <path fill="none" d="M7 7 L17 7 L17 17" clip-path="url(#clipPath6)"/>
    </g>
    <g stroke-linecap="round" transform="matrix(0.6667,0,0,0.6667,396,174.6053)" fill="rgb(110,110,110)" image-rendering="optimizeQuality" stroke-linejoin="round" stroke="rgb(110,110,110)" stroke-width="2" stroke-miterlimit="4">
      <path fill="none" d="M7 17 L17 7" clip-path="url(#clipPath6)"/>
    </g>
    <g stroke-miterlimit="1.45" font-family="'Inter'" transform="matrix(1,0,0,1,29,21)" stroke-linecap="butt">
      <text x="237" xml:space="preserve" y="188.7524" clip-path="url(#clipPath2)" stroke="none">location_id_</text>
    </g>
    <g stroke-miterlimit="1.45" font-family="'Inter'" transform="matrix(1,0,0,1,29,21)" stroke-linecap="butt">
      <text x="308" xml:space="preserve" y="188.7524" clip-path="url(#clipPath2)" stroke="none">INTEGER</text>
    </g>
    <g stroke-linecap="round" transform="matrix(0.6667,0,0,0.6667,396,195.1277)" fill="rgb(110,110,110)" image-rendering="optimizeQuality" stroke-linejoin="round" stroke="rgb(110,110,110)" stroke-width="2" stroke-miterlimit="4">
      <path fill="none" d="M7 7 L17 7 L17 17" clip-path="url(#clipPath6)"/>
    </g>
    <g stroke-linecap="round" transform="matrix(0.6667,0,0,0.6667,396,195.1277)" fill="rgb(110,110,110)" image-rendering="optimizeQuality" stroke-linejoin="round" stroke="rgb(110,110,110)" stroke-width="2" stroke-miterlimit="4">
      <path fill="none" d="M7 17 L17 7" clip-path="url(#clipPath6)"/>
    </g>
    <g fill="rgb(255,255,204)" transform="matrix(1,0,0,1,29,21)" stroke="rgb(255,255,204)">
      <rect x="-18.5" width="187" height="70.7777" y="114.6111" clip-path="url(#clipPath2)" stroke="none"/>
    </g>
    <g fill="gray" stroke-miterlimit="1.45" transform="matrix(1,0,0,1,29,21)" stroke-linecap="butt" stroke="gray">
      <rect fill="none" x="-18.5" width="187" height="70.7777" y="114.6111" clip-path="url(#clipPath2)"/>
    </g>
    <g stroke-miterlimit="1.45" font-size="13px" font-family="'Inter'" transform="matrix(1,0,0,1,29,21)" stroke-linecap="butt">
      <text x="17.5" xml:space="preserve" y="133.2049" clip-path="url(#clipPath2)" stroke="none">character_episode</text>
    </g>
    <g fill="gray" transform="matrix(1,0,0,1,29,21)" stroke="gray">
      <line y2="140" fill="none" x1="-17" clip-path="url(#clipPath2)" x2="167" y1="140"/>
    </g>
    <g stroke-linecap="round" transform="matrix(0.6667,0,0,0.6667,14.5,164.3442)" fill="rgb(110,110,110)" image-rendering="optimizeQuality" stroke-linejoin="round" stroke="rgb(110,110,110)" stroke-width="2" stroke-miterlimit="4">
      <path fill="none" d="M12.4 2.7 C13.3 1.8 14.9 1.8 15.8 2.7 L21.3 8.2 C22.2 9.1 22.2 10.7 21.3 11.6 L17.6 15.3 C16.7 16.2 15.1 16.2 14.2 15.3 L8.7 9.8 C7.8 8.9 7.8 7.3 8.7 6.4 Z" clip-path="url(#clipPath4)"/>
    </g>
    <g stroke-linecap="round" transform="matrix(0.6667,0,0,0.6667,14.5,164.3442)" fill="rgb(110,110,110)" image-rendering="optimizeQuality" stroke-linejoin="round" stroke="rgb(110,110,110)" stroke-width="2" stroke-miterlimit="4">
      <path fill="none" d="M14 7 L17 10" clip-path="url(#clipPath4)"/>
    </g>
    <g stroke-linecap="round" transform="matrix(0.6667,0,0,0.6667,14.5,164.3442)" fill="rgb(110,110,110)" image-rendering="optimizeQuality" stroke-linejoin="round" stroke="rgb(110,110,110)" stroke-width="2" stroke-miterlimit="4">
      <path fill="none" d="M9.4 10.6 L2 18 L2 21 C2 21.6 2.4 22 3 22 L7 22 L7 19 L10 19 L10 16 L12 16 L13.4 14.6" clip-path="url(#clipPath4)"/>
    </g>
    <g stroke-miterlimit="1.45" font-weight="bold" font-family="'Inter'" transform="matrix(1,0,0,1,29,21)" stroke-linecap="butt">
      <text x="7.5" xml:space="preserve" y="157.9689" clip-path="url(#clipPath2)" stroke="none">character_id</text>
    </g>
    <g stroke-miterlimit="1.45" font-family="'Inter'" transform="matrix(1,0,0,1,29,21)" stroke-linecap="butt">
      <text x="87.5" xml:space="preserve" y="157.9689" clip-path="url(#clipPath2)" stroke="none">INTEGER</text>
    </g>
    <g stroke-linecap="round" transform="matrix(0.6667,0,0,0.6667,175.5,164.3442)" fill="rgb(110,110,110)" image-rendering="optimizeQuality" stroke-linejoin="round" stroke="rgb(110,110,110)" stroke-width="2" stroke-miterlimit="4">
      <path fill="none" d="M7 7 L17 7 L17 17" clip-path="url(#clipPath4)"/>
    </g>
    <g stroke-linecap="round" transform="matrix(0.6667,0,0,0.6667,175.5,164.3442)" fill="rgb(110,110,110)" image-rendering="optimizeQuality" stroke-linejoin="round" stroke="rgb(110,110,110)" stroke-width="2" stroke-miterlimit="4">
      <path fill="none" d="M7 17 L17 7" clip-path="url(#clipPath4)"/>
    </g>
    <g stroke-linecap="round" transform="matrix(0.6667,0,0,0.6667,14.5,184.8665)" fill="rgb(110,110,110)" image-rendering="optimizeQuality" stroke-linejoin="round" stroke="rgb(110,110,110)" stroke-width="2" stroke-miterlimit="4">
      <path fill="none" d="M12.4 2.7 C13.3 1.8 14.9 1.8 15.8 2.7 L21.3 8.2 C22.2 9.1 22.2 10.7 21.3 11.6 L17.6 15.3 C16.7 16.2 15.1 16.2 14.2 15.3 L8.7 9.8 C7.8 8.9 7.8 7.3 8.7 6.4 Z" clip-path="url(#clipPath4)"/>
    </g>
    <g stroke-linecap="round" transform="matrix(0.6667,0,0,0.6667,14.5,184.8665)" fill="rgb(110,110,110)" image-rendering="optimizeQuality" stroke-linejoin="round" stroke="rgb(110,110,110)" stroke-width="2" stroke-miterlimit="4">
      <path fill="none" d="M14 7 L17 10" clip-path="url(#clipPath4)"/>
    </g>
    <g stroke-linecap="round" transform="matrix(0.6667,0,0,0.6667,14.5,184.8665)" fill="rgb(110,110,110)" image-rendering="optimizeQuality" stroke-linejoin="round" stroke="rgb(110,110,110)" stroke-width="2" stroke-miterlimit="4">
      <path fill="none" d="M9.4 10.6 L2 18 L2 21 C2 21.6 2.4 22 3 22 L7 22 L7 19 L10 19 L10 16 L12 16 L13.4 14.6" clip-path="url(#clipPath4)"/>
    </g>
    <g stroke-miterlimit="1.45" font-weight="bold" font-family="'Inter'" transform="matrix(1,0,0,1,29,21)" stroke-linecap="butt">
      <text x="7.5" xml:space="preserve" y="178.4912" clip-path="url(#clipPath2)" stroke="none">episode_id</text>
    </g>
    <g stroke-miterlimit="1.45" font-family="'Inter'" transform="matrix(1,0,0,1,29,21)" stroke-linecap="butt">
      <text x="87.5" xml:space="preserve" y="178.4912" clip-path="url(#clipPath2)" stroke="none">INTEGER</text>
    </g>
    <g stroke-linecap="round" transform="matrix(0.6667,0,0,0.6667,175.5,184.8665)" fill="rgb(110,110,110)" image-rendering="optimizeQuality" stroke-linejoin="round" stroke="rgb(110,110,110)" stroke-width="2" stroke-miterlimit="4">
      <path fill="none" d="M7 7 L17 7 L17 17" clip-path="url(#clipPath4)"/>
    </g>
    <g stroke-linecap="round" transform="matrix(0.6667,0,0,0.6667,175.5,184.8665)" fill="rgb(110,110,110)" image-rendering="optimizeQuality" stroke-linejoin="round" stroke="rgb(110,110,110)" stroke-width="2" stroke-miterlimit="4">
      <path fill="none" d="M7 17 L17 7" clip-path="url(#clipPath4)"/>
    </g>
    <g fill="rgb(255,255,204)" transform="matrix(1,0,0,1,29,21)" stroke="rgb(255,255,204)">
      <rect x="206.5" width="187" height="70.7777" y="-10.3889" clip-path="url(#clipPath2)" stroke="none"/>
    </g>
    <g fill="gray" stroke-miterlimit="1.45" transform="matrix(1,0,0,1,29,21)" stroke-linecap="butt" stroke="gray">
      <rect fill="none" x="206.5" width="187" height="70.7777" y="-10.3889" clip-path="url(#clipPath2)"/>
    </g>
    <g stroke-miterlimit="1.45" font-size="13px" font-family="'Inter'" transform="matrix(1,0,0,1,29,21)" stroke-linecap="butt">
      <text x="242.5" xml:space="preserve" y="8.2049" clip-path="url(#clipPath2)" stroke="none">episode_character</text>
    </g>
    <g fill="gray" transform="matrix(1,0,0,1,29,21)" stroke="gray">
      <line y2="15" fill="none" x1="207" clip-path="url(#clipPath2)" x2="392" y1="15"/>
    </g>
    <g stroke-linecap="round" transform="matrix(0.6667,0,0,0.6667,239.5,39.3442)" fill="rgb(110,110,110)" image-rendering="optimizeQuality" stroke-linejoin="round" stroke="rgb(110,110,110)" stroke-width="2" stroke-miterlimit="4">
      <path fill="none" d="M12.4 2.7 C13.3 1.8 14.9 1.8 15.8 2.7 L21.3 8.2 C22.2 9.1 22.2 10.7 21.3 11.6 L17.6 15.3 C16.7 16.2 15.1 16.2 14.2 15.3 L8.7 9.8 C7.8 8.9 7.8 7.3 8.7 6.4 Z" clip-path="url(#clipPath6)"/>
    </g>
    <g stroke-linecap="round" transform="matrix(0.6667,0,0,0.6667,239.5,39.3442)" fill="rgb(110,110,110)" image-rendering="optimizeQuality" stroke-linejoin="round" stroke="rgb(110,110,110)" stroke-width="2" stroke-miterlimit="4">
      <path fill="none" d="M14 7 L17 10" clip-path="url(#clipPath6)"/>
    </g>
    <g stroke-linecap="round" transform="matrix(0.6667,0,0,0.6667,239.5,39.3442)" fill="rgb(110,110,110)" image-rendering="optimizeQuality" stroke-linejoin="round" stroke="rgb(110,110,110)" stroke-width="2" stroke-miterlimit="4">
      <path fill="none" d="M9.4 10.6 L2 18 L2 21 C2 21.6 2.4 22 3 22 L7 22 L7 19 L10 19 L10 16 L12 16 L13.4 14.6" clip-path="url(#clipPath6)"/>
    </g>
    <g stroke-miterlimit="1.45" font-weight="bold" font-family="'Inter'" transform="matrix(1,0,0,1,29,21)" stroke-linecap="butt">
      <text x="232.5" xml:space="preserve" y="32.9689" clip-path="url(#clipPath2)" stroke="none">episode_id</text>
    </g>
    <g stroke-miterlimit="1.45" font-family="'Inter'" transform="matrix(1,0,0,1,29,21)" stroke-linecap="butt">
      <text x="312.5" xml:space="preserve" y="32.9689" clip-path="url(#clipPath2)" stroke="none">INTEGER</text>
    </g>
    <g stroke-linecap="round" transform="matrix(0.6667,0,0,0.6667,400.5,39.3442)" fill="rgb(110,110,110)" image-rendering="optimizeQuality" stroke-linejoin="round" stroke="rgb(110,110,110)" stroke-width="2" stroke-miterlimit="4">
      <path fill="none" d="M7 7 L17 7 L17 17" clip-path="url(#clipPath6)"/>
    </g>
    <g stroke-linecap="round" transform="matrix(0.6667,0,0,0.6667,400.5,39.3442)" fill="rgb(110,110,110)" image-rendering="optimizeQuality" stroke-linejoin="round" stroke="rgb(110,110,110)" stroke-width="2" stroke-miterlimit="4">
      <path fill="none" d="M7 17 L17 7" clip-path="url(#clipPath6)"/>
    </g>
    <g stroke-linecap="round" transform="matrix(0.6667,0,0,0.6667,239.5,59.8665)" fill="rgb(110,110,110)" image-rendering="optimizeQuality" stroke-linejoin="round" stroke="rgb(110,110,110)" stroke-width="2" stroke-miterlimit="4">
      <path fill="none" d="M12.4 2.7 C13.3 1.8 14.9 1.8 15.8 2.7 L21.3 8.2 C22.2 9.1 22.2 10.7 21.3 11.6 L17.6 15.3 C16.7 16.2 15.1 16.2 14.2 15.3 L8.7 9.8 C7.8 8.9 7.8 7.3 8.7 6.4 Z" clip-path="url(#clipPath4)"/>
    </g>
    <g stroke-linecap="round" transform="matrix(0.6667,0,0,0.6667,239.5,59.8665)" fill="rgb(110,110,110)" image-rendering="optimizeQuality" stroke-linejoin="round" stroke="rgb(110,110,110)" stroke-width="2" stroke-miterlimit="4">
      <path fill="none" d="M14 7 L17 10" clip-path="url(#clipPath4)"/>
    </g>
    <g stroke-linecap="round" transform="matrix(0.6667,0,0,0.6667,239.5,59.8665)" fill="rgb(110,110,110)" image-rendering="optimizeQuality" stroke-linejoin="round" stroke="rgb(110,110,110)" stroke-width="2" stroke-miterlimit="4">
      <path fill="none" d="M9.4 10.6 L2 18 L2 21 C2 21.6 2.4 22 3 22 L7 22 L7 19 L10 19 L10 16 L12 16 L13.4 14.6" clip-path="url(#clipPath4)"/>
    </g>
    <g stroke-miterlimit="1.45" font-weight="bold" font-family="'Inter'" transform="matrix(1,0,0,1,29,21)" stroke-linecap="butt">
      <text x="232.5" xml:space="preserve" y="53.4912" clip-path="url(#clipPath2)" stroke="none">character_id</text>
    </g>
    <g stroke-miterlimit="1.45" font-family="'Inter'" transform="matrix(1,0,0,1,29,21)" stroke-linecap="butt">
      <text x="312.5" xml:space="preserve" y="53.4912" clip-path="url(#clipPath2)" stroke="none">INTEGER</text>
    </g>
    <g stroke-linecap="round" transform="matrix(0.6667,0,0,0.6667,400.5,59.8665)" fill="rgb(110,110,110)" image-rendering="optimizeQuality" stroke-linejoin="round" stroke="rgb(110,110,110)" stroke-width="2" stroke-miterlimit="4">
      <path fill="none" d="M7 7 L17 7 L17 17" clip-path="url(#clipPath4)"/>
    </g>
    <g stroke-linecap="round" transform="matrix(0.6667,0,0,0.6667,400.5,59.8665)" fill="rgb(110,110,110)" image-rendering="optimizeQuality" stroke-linejoin="round" stroke="rgb(110,110,110)" stroke-width="2" stroke-miterlimit="4">
      <path fill="none" d="M7 17 L17 7" clip-path="url(#clipPath4)"/>
    </g>
    <g fill="rgb(255,255,204)" transform="matrix(1,0,0,1,29,21)" stroke="rgb(255,255,204)">
      <rect x="435.5" width="179" height="70.7777" y="239.6111" clip-path="url(#clipPath2)" stroke="none"/>
    </g>
    <g fill="gray" stroke-miterlimit="1.45" transform="matrix(1,0,0,1,29,21)" stroke-linecap="butt" stroke="gray">
      <rect fill="none" x="435.5" width="179" height="70.7777" y="239.6111" clip-path="url(#clipPath2)"/>
    </g>
    <g stroke-miterlimit="1.45" font-size="13px" font-family="'Inter'" transform="matrix(1,0,0,1,29,21)" stroke-linecap="butt">
      <text x="471.5" xml:space="preserve" y="258.2049" clip-path="url(#clipPath2)" stroke="none">location_resident</text>
    </g>
    <g fill="gray" transform="matrix(1,0,0,1,29,21)" stroke="gray">
      <line y2="265" fill="none" x1="436" clip-path="url(#clipPath2)" x2="613" y1="265"/>
    </g>
    <g stroke-linecap="round" transform="matrix(0.6667,0,0,0.6667,468.5,289.3442)" fill="rgb(110,110,110)" image-rendering="optimizeQuality" stroke-linejoin="round" stroke="rgb(110,110,110)" stroke-width="2" stroke-miterlimit="4">
      <path fill="none" d="M12.4 2.7 C13.3 1.8 14.9 1.8 15.8 2.7 L21.3 8.2 C22.2 9.1 22.2 10.7 21.3 11.6 L17.6 15.3 C16.7 16.2 15.1 16.2 14.2 15.3 L8.7 9.8 C7.8 8.9 7.8 7.3 8.7 6.4 Z" clip-path="url(#clipPath6)"/>
    </g>
    <g stroke-linecap="round" transform="matrix(0.6667,0,0,0.6667,468.5,289.3442)" fill="rgb(110,110,110)" image-rendering="optimizeQuality" stroke-linejoin="round" stroke="rgb(110,110,110)" stroke-width="2" stroke-miterlimit="4">
      <path fill="none" d="M14 7 L17 10" clip-path="url(#clipPath6)"/>
    </g>
    <g stroke-linecap="round" transform="matrix(0.6667,0,0,0.6667,468.5,289.3442)" fill="rgb(110,110,110)" image-rendering="optimizeQuality" stroke-linejoin="round" stroke="rgb(110,110,110)" stroke-width="2" stroke-miterlimit="4">
      <path fill="none" d="M9.4 10.6 L2 18 L2 21 C2 21.6 2.4 22 3 22 L7 22 L7 19 L10 19 L10 16 L12 16 L13.4 14.6" clip-path="url(#clipPath6)"/>
    </g>
    <g stroke-miterlimit="1.45" font-weight="bold" font-family="'Inter'" transform="matrix(1,0,0,1,29,21)" stroke-linecap="butt">
      <text x="461.5" xml:space="preserve" y="282.9689" clip-path="url(#clipPath2)" stroke="none">location_id</text>
    </g>
    <g stroke-miterlimit="1.45" font-family="'Inter'" transform="matrix(1,0,0,1,29,21)" stroke-linecap="butt">
      <text x="533.5" xml:space="preserve" y="282.9689" clip-path="url(#clipPath2)" stroke="none">INTEGER</text>
    </g>
    <g stroke-linecap="round" transform="matrix(0.6667,0,0,0.6667,621.5,289.3442)" fill="rgb(110,110,110)" image-rendering="optimizeQuality" stroke-linejoin="round" stroke="rgb(110,110,110)" stroke-width="2" stroke-miterlimit="4">
      <path fill="none" d="M7 7 L17 7 L17 17" clip-path="url(#clipPath6)"/>
    </g>
    <g stroke-linecap="round" transform="matrix(0.6667,0,0,0.6667,621.5,289.3442)" fill="rgb(110,110,110)" image-rendering="optimizeQuality" stroke-linejoin="round" stroke="rgb(110,110,110)" stroke-width="2" stroke-miterlimit="4">
      <path fill="none" d="M7 17 L17 7" clip-path="url(#clipPath6)"/>
    </g>
    <g stroke-linecap="round" transform="matrix(0.6667,0,0,0.6667,468.5,309.8665)" fill="rgb(110,110,110)" image-rendering="optimizeQuality" stroke-linejoin="round" stroke="rgb(110,110,110)" stroke-width="2" stroke-miterlimit="4">
      <path fill="none" d="M12.4 2.7 C13.3 1.8 14.9 1.8 15.8 2.7 L21.3 8.2 C22.2 9.1 22.2 10.7 21.3 11.6 L17.6 15.3 C16.7 16.2 15.1 16.2 14.2 15.3 L8.7 9.8 C7.8 8.9 7.8 7.3 8.7 6.4 Z" clip-path="url(#clipPath4)"/>
    </g>
    <g stroke-linecap="round" transform="matrix(0.6667,0,0,0.6667,468.5,309.8665)" fill="rgb(110,110,110)" image-rendering="optimizeQuality" stroke-linejoin="round" stroke="rgb(110,110,110)" stroke-width="2" stroke-miterlimit="4">
      <path fill="none" d="M14 7 L17 10" clip-path="url(#clipPath4)"/>
    </g>
    <g stroke-linecap="round" transform="matrix(0.6667,0,0,0.6667,468.5,309.8665)" fill="rgb(110,110,110)" image-rendering="optimizeQuality" stroke-linejoin="round" stroke="rgb(110,110,110)" stroke-width="2" stroke-miterlimit="4">
      <path fill="none" d="M9.4 10.6 L2 18 L2 21 C2 21.6 2.4 22 3 22 L7 22 L7 19 L10 19 L10 16 L12 16 L13.4 14.6" clip-path="url(#clipPath4)"/>
    </g>
    <g stroke-miterlimit="1.45" font-weight="bold" font-family="'Inter'" transform="matrix(1,0,0,1,29,21)" stroke-linecap="butt">
      <text x="461.5" xml:space="preserve" y="303.4912" clip-path="url(#clipPath2)" stroke="none">resident_id</text>
    </g>
    <g stroke-miterlimit="1.45" font-family="'Inter'" transform="matrix(1,0,0,1,29,21)" stroke-linecap="butt">
      <text x="533.5" xml:space="preserve" y="303.4912" clip-path="url(#clipPath2)" stroke="none">INTEGER</text>
    </g>
    <g stroke-linecap="round" transform="matrix(0.6667,0,0,0.6667,621.5,309.8665)" fill="rgb(110,110,110)" image-rendering="optimizeQuality" stroke-linejoin="round" stroke="rgb(110,110,110)" stroke-width="2" stroke-miterlimit="4">
      <path fill="none" d="M7 7 L17 7 L17 17" clip-path="url(#clipPath4)"/>
    </g>
    <g stroke-linecap="round" transform="matrix(0.6667,0,0,0.6667,621.5,309.8665)" fill="rgb(110,110,110)" image-rendering="optimizeQuality" stroke-linejoin="round" stroke="rgb(110,110,110)" stroke-width="2" stroke-miterlimit="4">
      <path fill="none" d="M7 17 L17 7" clip-path="url(#clipPath4)"/>
    </g>
    <g fill="rgb(255,255,204)" transform="matrix(1,0,0,1,29,21)" stroke="rgb(255,255,204)">
      <rect x="21" width="108" height="50.2554" y="-0.1277" clip-path="url(#clipPath2)" stroke="none"/>
    </g>
    <g fill="gray" stroke-miterlimit="1.45" transform="matrix(1,0,0,1,29,21)" stroke-linecap="butt" stroke="gray">
      <rect fill="none" x="21" width="108" height="50.2554" y="-0.1277" clip-path="url(#clipPath2)"/>
    </g>
    <g stroke-miterlimit="1.45" font-size="13px" font-family="'Inter'" transform="matrix(1,0,0,1,29,21)" stroke-linecap="butt">
      <text x="50" xml:space="preserve" y="18.4661" clip-path="url(#clipPath2)" stroke="none">episode</text>
    </g>
    <g fill="gray" transform="matrix(1,0,0,1,29,21)" stroke="gray">
      <line y2="25" fill="none" x1="22" clip-path="url(#clipPath2)" x2="128" y1="25"/>
    </g>
    <g stroke-linecap="round" transform="matrix(0.6667,0,0,0.6667,54,49.6053)" fill="rgb(110,110,110)" image-rendering="optimizeQuality" stroke-linejoin="round" stroke="rgb(110,110,110)" stroke-width="2" stroke-miterlimit="4">
      <path fill="none" d="M12.4 2.7 C13.3 1.8 14.9 1.8 15.8 2.7 L21.3 8.2 C22.2 9.1 22.2 10.7 21.3 11.6 L17.6 15.3 C16.7 16.2 15.1 16.2 14.2 15.3 L8.7 9.8 C7.8 8.9 7.8 7.3 8.7 6.4 Z" clip-path="url(#clipPath4)"/>
    </g>
    <g stroke-linecap="round" transform="matrix(0.6667,0,0,0.6667,54,49.6053)" fill="rgb(110,110,110)" image-rendering="optimizeQuality" stroke-linejoin="round" stroke="rgb(110,110,110)" stroke-width="2" stroke-miterlimit="4">
      <path fill="none" d="M14 7 L17 10" clip-path="url(#clipPath4)"/>
    </g>
    <g stroke-linecap="round" transform="matrix(0.6667,0,0,0.6667,54,49.6053)" fill="rgb(110,110,110)" image-rendering="optimizeQuality" stroke-linejoin="round" stroke="rgb(110,110,110)" stroke-width="2" stroke-miterlimit="4">
      <path fill="none" d="M9.4 10.6 L2 18 L2 21 C2 21.6 2.4 22 3 22 L7 22 L7 19 L10 19 L10 16 L12 16 L13.4 14.6" clip-path="url(#clipPath4)"/>
    </g>
    <g stroke-miterlimit="1.45" font-weight="bold" font-family="'Inter'" transform="matrix(1,0,0,1,29,21)" stroke-linecap="butt">
      <text x="47" xml:space="preserve" y="43.23" clip-path="url(#clipPath2)" stroke="none">id</text>
    </g>
    <g stroke-miterlimit="1.45" font-family="'Inter'" transform="matrix(1,0,0,1,29,21)" stroke-linecap="butt">
      <text x="64" xml:space="preserve" y="43.23" clip-path="url(#clipPath2)" stroke="none">INTEGER</text>
    </g>
    <g fill="rgb(255,255,204)" transform="matrix(1,0,0,1,29,21)" stroke="rgb(255,255,204)">
      <rect x="471" width="108" height="50.2554" y="124.8723" clip-path="url(#clipPath2)" stroke="none"/>
    </g>
    <g fill="gray" stroke-miterlimit="1.45" transform="matrix(1,0,0,1,29,21)" stroke-linecap="butt" stroke="gray">
      <rect fill="none" x="471" width="108" height="50.2554" y="124.8723" clip-path="url(#clipPath2)"/>
    </g>
    <g stroke-miterlimit="1.45" font-size="13px" font-family="'Inter'" transform="matrix(1,0,0,1,29,21)" stroke-linecap="butt">
      <text x="500.5" xml:space="preserve" y="143.4661" clip-path="url(#clipPath2)" stroke="none">location</text>
    </g>
    <g fill="gray" transform="matrix(1,0,0,1,29,21)" stroke="gray">
      <line y2="150" fill="none" x1="472" clip-path="url(#clipPath2)" x2="578" y1="150"/>
    </g>
    <g stroke-linecap="round" transform="matrix(0.6667,0,0,0.6667,504,174.6053)" fill="rgb(110,110,110)" image-rendering="optimizeQuality" stroke-linejoin="round" stroke="rgb(110,110,110)" stroke-width="2" stroke-miterlimit="4">
      <path fill="none" d="M12.4 2.7 C13.3 1.8 14.9 1.8 15.8 2.7 L21.3 8.2 C22.2 9.1 22.2 10.7 21.3 11.6 L17.6 15.3 C16.7 16.2 15.1 16.2 14.2 15.3 L8.7 9.8 C7.8 8.9 7.8 7.3 8.7 6.4 Z" clip-path="url(#clipPath6)"/>
    </g>
    <g stroke-linecap="round" transform="matrix(0.6667,0,0,0.6667,504,174.6053)" fill="rgb(110,110,110)" image-rendering="optimizeQuality" stroke-linejoin="round" stroke="rgb(110,110,110)" stroke-width="2" stroke-miterlimit="4">
      <path fill="none" d="M14 7 L17 10" clip-path="url(#clipPath6)"/>
    </g>
    <g stroke-linecap="round" transform="matrix(0.6667,0,0,0.6667,504,174.6053)" fill="rgb(110,110,110)" image-rendering="optimizeQuality" stroke-linejoin="round" stroke="rgb(110,110,110)" stroke-width="2" stroke-miterlimit="4">
      <path fill="none" d="M9.4 10.6 L2 18 L2 21 C2 21.6 2.4 22 3 22 L7 22 L7 19 L10 19 L10 16 L12 16 L13.4 14.6" clip-path="url(#clipPath6)"/>
    </g>
    <g stroke-miterlimit="1.45" font-weight="bold" font-family="'Inter'" transform="matrix(1,0,0,1,29,21)" stroke-linecap="butt">
      <text x="497" xml:space="preserve" y="168.23" clip-path="url(#clipPath2)" stroke="none">id</text>
    </g>
    <g stroke-miterlimit="1.45" font-family="'Inter'" transform="matrix(1,0,0,1,29,21)" stroke-linecap="butt">
      <text x="514" xml:space="preserve" y="168.23" clip-path="url(#clipPath2)" stroke="none">INTEGER</text>
    </g>
    <g fill="gray" stroke-miterlimit="1.45" transform="matrix(1,0,0,1,29,21)" stroke-linecap="butt" stroke="gray">
      <path fill="none" d="M168.5415 150 L202.9585 150" clip-path="url(#clipPath2)"/>
    </g>
    <g fill="gray" stroke-miterlimit="1.45" transform="matrix(1,0,0,1,29,21)" stroke-linecap="butt" stroke="gray">
      <path d="M210.9585 150 L198.9585 145 L201.9585 150 L198.9585 155 Z" stroke="none" clip-path="url(#clipPath2)"/>
      <path fill="none" d="M300 60.4318 L300 96.3071" clip-path="url(#clipPath2)"/>
      <path d="M300 104.3071 L305 92.3071 L300 95.3071 L295 92.3071 Z" clip-path="url(#clipPath2)" stroke="none"/>
      <path fill="none" d="M435.4669 275 L300 275 L300 203.6888" clip-path="url(#clipPath2)"/>
      <path d="M300 195.6888 L295 207.6888 L300 204.6888 L305 207.6888 Z" clip-path="url(#clipPath2)" stroke="none"/>
      <path fill="none" d="M75 114.5796 L75 58.1592" clip-path="url(#clipPath2)"/>
      <path d="M75 50.1592 L70 62.1592 L75 59.1592 L80 62.1592 Z" clip-path="url(#clipPath2)" stroke="none"/>
      <path fill="none" d="M206.4622 25 L137.0378 25" clip-path="url(#clipPath2)"/>
      <path d="M129.0378 25 L141.0378 30 L138.0378 25 L141.0378 20 Z" clip-path="url(#clipPath2)" stroke="none"/>
      <path fill="none" d="M389.04 150 L462.96 150" clip-path="url(#clipPath2)"/>
      <path d="M470.96 150 L458.96 145 L461.96 150 L458.96 155 Z" clip-path="url(#clipPath2)" stroke="none"/>
      <path fill="none" d="M525 239.5796 L525 183.1592" clip-path="url(#clipPath2)"/>
      <path d="M525 175.1592 L520 187.1592 L525 184.1592 L530 187.1592 Z" clip-path="url(#clipPath2)" stroke="none"/>
    </g>
  </g>
</svg>
