<?xml version="1.0" encoding="UTF-8"?><svg xmlns="http://www.w3.org/2000/svg" xmlns:xlink="http://www.w3.org/1999/xlink" fill-opacity="1" color-rendering="auto" color-interpolation="auto" text-rendering="auto" stroke="black" stroke-linecap="square" width="639" stroke-miterlimit="10" shape-rendering="auto" stroke-opacity="1" fill="black" stroke-dasharray="none" font-weight="normal" stroke-width="1" height="678" font-family="'Dialog'" font-style="normal" stroke-linejoin="miter" font-size="12px" stroke-dashoffset="0" image-rendering="auto">
  <!--Generated by ySVG 2.5-->
  <defs id="genericDefs"/>
  <g>
    <defs id="defs1">
      <clipPath clipPathUnits="userSpaceOnUse" id="clipPath1">
        <path d="M0 0 L639 0 L639 678 L0 678 L0 0 Z"/>
      </clipPath>
      <clipPath clipPathUnits="userSpaceOnUse" id="clipPath2">
        <path d="M-22 -32 L617 -32 L617 646 L-22 646 L-22 -32 Z"/>
      </clipPath>
      <clipPath clipPathUnits="userSpaceOnUse" id="clipPath3">
        <path d="M-22.5 -32.6877 L616.5 -32.6877 L616.5 645.3124 L-22.5 645.3124 L-22.5 -32.6877 Z"/>
      </clipPath>
      <clipPath clipPathUnits="userSpaceOnUse" id="clipPath4">
        <path d="M0 0 L0 24 L24 24 L24 0 Z"/>
      </clipPath>
      <clipPath clipPathUnits="userSpaceOnUse" id="clipPath5">
        <path d="M-22.5 -32.0007 L616.5 -32.0007 L616.5 645.9993 L-22.5 645.9993 L-22.5 -32.0007 Z"/>
      </clipPath>
      <clipPath clipPathUnits="userSpaceOnUse" id="clipPath6">
        <path d="M-22.5 -32.523 L616.5 -32.523 L616.5 645.477 L-22.5 645.477 L-22.5 -32.523 Z"/>
      </clipPath>
      <clipPath clipPathUnits="userSpaceOnUse" id="clipPath7">
        <path d="M0 -0 L0 24 L24 24 L24 -0 Z"/>
      </clipPath>
      <clipPath clipPathUnits="userSpaceOnUse" id="clipPath8">
        <path d="M-22.5 -32.3442 L616.5 -32.3442 L616.5 645.6558 L-22.5 645.6558 L-22.5 -32.3442 Z"/>
      </clipPath>
      <clipPath clipPathUnits="userSpaceOnUse" id="clipPath9">
        <path d="M-22.5 -32.8665 L616.5 -32.8665 L616.5 645.1335 L-22.5 645.1335 L-22.5 -32.8665 Z"/>
      </clipPath>
      <clipPath clipPathUnits="userSpaceOnUse" id="clipPath10">
        <path d="M-22 -32.7771 L617 -32.7771 L617 645.2229 L-22 645.2229 L-22 -32.7771 Z"/>
      </clipPath>
      <clipPath clipPathUnits="userSpaceOnUse" id="clipPath11">
        <path d="M-22 -32.0383 L617 -32.0383 L617 645.9617 L-22 645.9617 L-22 -32.0383 Z"/>
      </clipPath>
    </defs>
    <g fill="white" stroke="white">
      <path d="M12.1191 667 L12.1191 658.3281 L14.4805 658.3281 Q16.0508 658.3281 16.7363 658.8584 Q17.4219 659.3887 17.4219 660.6016 Q17.4219 661.9844 16.4844 662.7695 Q15.5469 663.5547 13.8828 663.5547 L13.3379 663.5547 L13.3379 667 ZM13.3379 662.623 L13.8359 662.623 Q14.9316 662.623 15.5293 662.1191 Q16.127 661.6152 16.127 660.6953 Q16.127 659.916 15.6582 659.582 Q15.1895 659.248 14.0938 659.248 L13.3379 659.248 ZM21.2773 667.1465 Q19.9121 667.1465 19.0977 666.2412 Q18.2832 665.3359 18.2832 663.8184 Q18.2832 662.2832 19.1006 661.3896 Q19.918 660.4961 21.3184 660.4961 Q22.7188 660.4961 23.5361 661.3896 Q24.3535 662.2832 24.3535 663.8066 Q24.3535 665.3652 23.5332 666.2559 Q22.7129 667.1465 21.2773 667.1465 ZM21.2949 666.2793 Q23.1289 666.2793 23.1289 663.8066 Q23.1289 661.3633 21.3184 661.3633 Q19.5137 661.3633 19.5137 663.8184 Q19.5137 666.2793 21.2949 666.2793 ZM26.8965 667 L25.0742 660.6367 L26.2051 660.6367 L27.5996 665.5645 L29.1055 660.6367 L30.2598 660.6367 L31.5781 665.5645 L33.1777 660.6367 L34.168 660.6367 L32.0938 667 L30.9336 667 L29.5859 662.0723 L28.0625 667 ZM40.0684 666.7949 Q38.9082 667.1465 38.082 667.1465 Q36.6758 667.1465 35.7881 666.2119 Q34.9004 665.2773 34.9004 663.7891 Q34.9004 662.3418 35.6826 661.416 Q36.4648 660.4902 37.6836 660.4902 Q38.8379 660.4902 39.4678 661.3105 Q40.0977 662.1309 40.0977 663.6426 L40.0918 664 L36.0781 664 Q36.3301 666.2676 38.2988 666.2676 Q39.0195 666.2676 40.0684 665.8809 ZM36.1309 663.1328 L38.9375 663.1328 Q38.9375 661.3574 37.6133 661.3574 Q36.2832 661.3574 36.1309 663.1328 ZM42.0898 667 L42.0898 660.6367 L43.2441 660.6367 L43.2441 661.832 Q43.9297 660.4961 45.2363 660.4961 Q45.4121 660.4961 45.6055 660.5254 L45.6055 661.6035 Q45.3066 661.5039 45.0781 661.5039 Q43.9824 661.5039 43.2441 662.8047 L43.2441 667 ZM51.6641 666.7949 Q50.5039 667.1465 49.6777 667.1465 Q48.2715 667.1465 47.3838 666.2119 Q46.4961 665.2773 46.4961 663.7891 Q46.4961 662.3418 47.2783 661.416 Q48.0605 660.4902 49.2793 660.4902 Q50.4336 660.4902 51.0635 661.3105 Q51.6934 662.1309 51.6934 663.6426 L51.6875 664 L47.6738 664 Q47.9258 666.2676 49.8945 666.2676 Q50.6152 666.2676 51.6641 665.8809 ZM47.7266 663.1328 L50.5332 663.1328 Q50.5332 661.3574 49.209 661.3574 Q47.8789 661.3574 47.7266 663.1328 ZM57.7695 667 L57.7695 665.8047 Q57.0664 667.1465 55.6484 667.1465 Q54.5 667.1465 53.8408 666.3086 Q53.1816 665.4707 53.1816 664.0176 Q53.1816 662.4297 53.9287 661.4629 Q54.6758 660.4961 55.8945 660.4961 Q57.0254 660.4961 57.7695 661.3633 L57.7695 657.748 L58.9297 657.748 L58.9297 667 ZM57.7695 662.1543 Q56.873 661.3633 56.0703 661.3633 Q54.4121 661.3633 54.4121 663.9004 Q54.4121 666.1328 55.8887 666.1328 Q56.8496 666.1328 57.7695 665.084 ZM65.0352 667.0703 L65.0352 657.748 L66.1895 657.748 L66.1895 661.832 Q66.8984 660.4961 68.3164 660.4961 Q69.4648 660.4961 70.124 661.334 Q70.7832 662.1719 70.7832 663.625 Q70.7832 665.207 70.0361 666.1768 Q69.2891 667.1465 68.0703 667.1465 Q66.9395 667.1465 66.1895 666.2793 L66.0488 667.0703 ZM66.1895 665.4824 Q67.0801 666.2793 67.8887 666.2793 Q69.5527 666.2793 69.5527 663.7422 Q69.5527 661.5039 68.0762 661.5039 Q67.1094 661.5039 66.1895 662.5527 ZM72.957 669.3145 L73.9883 667 L71.5273 660.6367 L72.7754 660.6367 L74.5977 665.4297 L76.543 660.6367 L77.6328 660.6367 L74.1582 669.3145 ZM83.0234 669.3145 L84.0547 667 L81.5938 660.6367 L82.8418 660.6367 L84.6641 665.4297 L86.6094 660.6367 L87.6992 660.6367 L84.2246 669.3145 ZM88.8887 667 L88.8887 658.3281 L93.7344 658.3281 L93.7344 659.248 L90.1191 659.248 L90.1191 662.1543 L93.1543 662.1543 L93.1543 663.0625 L90.1191 663.0625 L90.1191 667 ZM95.3574 667 L95.3574 660.6367 L96.5117 660.6367 L96.5117 667 ZM95.3574 659.4824 L95.3574 658.3281 L96.5117 658.3281 L96.5117 659.4824 ZM98.8262 667 L98.8262 657.748 L99.9805 657.748 L99.9805 667 ZM106.959 666.7949 Q105.7988 667.1465 104.9727 667.1465 Q103.5664 667.1465 102.6787 666.2119 Q101.791 665.2773 101.791 663.7891 Q101.791 662.3418 102.5732 661.416 Q103.3555 660.4902 104.5742 660.4902 Q105.7285 660.4902 106.3584 661.3105 Q106.9883 662.1309 106.9883 663.6426 L106.9824 664 L102.9688 664 Q103.2207 666.2676 105.1895 666.2676 Q105.9102 666.2676 106.959 665.8809 ZM103.0215 663.1328 L105.8281 663.1328 Q105.8281 661.3574 104.5039 661.3574 Q103.1738 661.3574 103.0215 663.1328 ZM110.668 667.1465 Q109.877 667.1465 108.7461 666.7773 L108.7461 665.7168 Q109.877 666.2793 110.7148 666.2793 Q111.2129 666.2793 111.541 666.0098 Q111.8691 665.7402 111.8691 665.3359 Q111.8691 664.7441 110.9492 664.3574 L110.2754 664.0703 Q108.7812 663.4492 108.7812 662.2832 Q108.7812 661.4512 109.3701 660.9736 Q109.959 660.4961 110.9844 660.4961 Q111.5176 660.4961 112.3027 660.6426 L112.543 660.6895 L112.543 661.6504 Q111.5762 661.3633 111.0078 661.3633 Q109.8945 661.3633 109.8945 662.1719 Q109.8945 662.6934 110.7383 663.0508 L111.2949 663.2852 Q112.2383 663.6836 112.6309 664.126 Q113.0234 664.5684 113.0234 665.2305 Q113.0234 666.0684 112.3613 666.6074 Q111.6992 667.1465 110.668 667.1465 Z" stroke="none" clip-path="url(#clipPath1)"/>
    </g>
    <g fill="silver" stroke="silver">
      <path d="M11.1191 666 L11.1191 657.3281 L13.4805 657.3281 Q15.0508 657.3281 15.7363 657.8584 Q16.4219 658.3887 16.4219 659.6016 Q16.4219 660.9844 15.4844 661.7695 Q14.5469 662.5547 12.8828 662.5547 L12.3379 662.5547 L12.3379 666 ZM12.3379 661.623 L12.8359 661.623 Q13.9316 661.623 14.5293 661.1191 Q15.127 660.6152 15.127 659.6953 Q15.127 658.916 14.6582 658.582 Q14.1895 658.248 13.0938 658.248 L12.3379 658.248 ZM20.2773 666.1465 Q18.9121 666.1465 18.0977 665.2412 Q17.2832 664.3359 17.2832 662.8184 Q17.2832 661.2832 18.1006 660.3896 Q18.918 659.4961 20.3184 659.4961 Q21.7188 659.4961 22.5361 660.3896 Q23.3535 661.2832 23.3535 662.8066 Q23.3535 664.3652 22.5332 665.2559 Q21.7129 666.1465 20.2773 666.1465 ZM20.2949 665.2793 Q22.1289 665.2793 22.1289 662.8066 Q22.1289 660.3633 20.3184 660.3633 Q18.5137 660.3633 18.5137 662.8184 Q18.5137 665.2793 20.2949 665.2793 ZM25.8965 666 L24.0742 659.6367 L25.2051 659.6367 L26.5996 664.5645 L28.1055 659.6367 L29.2598 659.6367 L30.5781 664.5645 L32.1777 659.6367 L33.168 659.6367 L31.0938 666 L29.9336 666 L28.5859 661.0723 L27.0625 666 ZM39.0684 665.7949 Q37.9082 666.1465 37.082 666.1465 Q35.6758 666.1465 34.7881 665.2119 Q33.9004 664.2773 33.9004 662.7891 Q33.9004 661.3418 34.6826 660.416 Q35.4648 659.4902 36.6836 659.4902 Q37.8379 659.4902 38.4678 660.3105 Q39.0977 661.1309 39.0977 662.6426 L39.0918 663 L35.0781 663 Q35.3301 665.2676 37.2988 665.2676 Q38.0195 665.2676 39.0684 664.8809 ZM35.1309 662.1328 L37.9375 662.1328 Q37.9375 660.3574 36.6133 660.3574 Q35.2832 660.3574 35.1309 662.1328 ZM41.0898 666 L41.0898 659.6367 L42.2441 659.6367 L42.2441 660.832 Q42.9297 659.4961 44.2363 659.4961 Q44.4121 659.4961 44.6055 659.5254 L44.6055 660.6035 Q44.3066 660.5039 44.0781 660.5039 Q42.9824 660.5039 42.2441 661.8047 L42.2441 666 ZM50.6641 665.7949 Q49.5039 666.1465 48.6777 666.1465 Q47.2715 666.1465 46.3838 665.2119 Q45.4961 664.2773 45.4961 662.7891 Q45.4961 661.3418 46.2783 660.416 Q47.0605 659.4902 48.2793 659.4902 Q49.4336 659.4902 50.0635 660.3105 Q50.6934 661.1309 50.6934 662.6426 L50.6875 663 L46.6738 663 Q46.9258 665.2676 48.8945 665.2676 Q49.6152 665.2676 50.6641 664.8809 ZM46.7266 662.1328 L49.5332 662.1328 Q49.5332 660.3574 48.209 660.3574 Q46.8789 660.3574 46.7266 662.1328 ZM56.7695 666 L56.7695 664.8047 Q56.0664 666.1465 54.6484 666.1465 Q53.5 666.1465 52.8408 665.3086 Q52.1816 664.4707 52.1816 663.0176 Q52.1816 661.4297 52.9287 660.4629 Q53.6758 659.4961 54.8945 659.4961 Q56.0254 659.4961 56.7695 660.3633 L56.7695 656.748 L57.9297 656.748 L57.9297 666 ZM56.7695 661.1543 Q55.873 660.3633 55.0703 660.3633 Q53.4121 660.3633 53.4121 662.9004 Q53.4121 665.1328 54.8887 665.1328 Q55.8496 665.1328 56.7695 664.084 ZM64.0352 666.0703 L64.0352 656.748 L65.1895 656.748 L65.1895 660.832 Q65.8984 659.4961 67.3164 659.4961 Q68.4648 659.4961 69.124 660.334 Q69.7832 661.1719 69.7832 662.625 Q69.7832 664.207 69.0361 665.1768 Q68.2891 666.1465 67.0703 666.1465 Q65.9395 666.1465 65.1895 665.2793 L65.0488 666.0703 ZM65.1895 664.4824 Q66.0801 665.2793 66.8887 665.2793 Q68.5527 665.2793 68.5527 662.7422 Q68.5527 660.5039 67.0762 660.5039 Q66.1094 660.5039 65.1895 661.5527 ZM71.957 668.3145 L72.9883 666 L70.5273 659.6367 L71.7754 659.6367 L73.5977 664.4297 L75.543 659.6367 L76.6328 659.6367 L73.1582 668.3145 ZM82.0234 668.3145 L83.0547 666 L80.5938 659.6367 L81.8418 659.6367 L83.6641 664.4297 L85.6094 659.6367 L86.6992 659.6367 L83.2246 668.3145 ZM87.8887 666 L87.8887 657.3281 L92.7344 657.3281 L92.7344 658.248 L89.1191 658.248 L89.1191 661.1543 L92.1543 661.1543 L92.1543 662.0625 L89.1191 662.0625 L89.1191 666 ZM94.3574 666 L94.3574 659.6367 L95.5117 659.6367 L95.5117 666 ZM94.3574 658.4824 L94.3574 657.3281 L95.5117 657.3281 L95.5117 658.4824 ZM97.8262 666 L97.8262 656.748 L98.9805 656.748 L98.9805 666 ZM105.959 665.7949 Q104.7988 666.1465 103.9727 666.1465 Q102.5664 666.1465 101.6787 665.2119 Q100.791 664.2773 100.791 662.7891 Q100.791 661.3418 101.5732 660.416 Q102.3555 659.4902 103.5742 659.4902 Q104.7285 659.4902 105.3584 660.3105 Q105.9883 661.1309 105.9883 662.6426 L105.9824 663 L101.9688 663 Q102.2207 665.2676 104.1895 665.2676 Q104.9102 665.2676 105.959 664.8809 ZM102.0215 662.1328 L104.8281 662.1328 Q104.8281 660.3574 103.5039 660.3574 Q102.1738 660.3574 102.0215 662.1328 ZM109.668 666.1465 Q108.877 666.1465 107.7461 665.7773 L107.7461 664.7168 Q108.877 665.2793 109.7148 665.2793 Q110.2129 665.2793 110.541 665.0098 Q110.8691 664.7402 110.8691 664.3359 Q110.8691 663.7441 109.9492 663.3574 L109.2754 663.0703 Q107.7812 662.4492 107.7812 661.2832 Q107.7812 660.4512 108.3701 659.9736 Q108.959 659.4961 109.9844 659.4961 Q110.5176 659.4961 111.3027 659.6426 L111.543 659.6895 L111.543 660.6504 Q110.5762 660.3633 110.0078 660.3633 Q108.8945 660.3633 108.8945 661.1719 Q108.8945 661.6934 109.7383 662.0508 L110.2949 662.2852 Q111.2383 662.6836 111.6309 663.126 Q112.0234 663.5684 112.0234 664.2305 Q112.0234 665.0684 111.3613 665.6074 Q110.6992 666.1465 109.668 666.1465 Z" stroke="none" clip-path="url(#clipPath1)"/>
    </g>
    <g fill="rgb(255,255,204)" transform="matrix(1,0,0,1,22,32)" stroke="rgb(255,255,204)">
      <rect x="201.5" width="197" height="358.0908" y="170.9546" clip-path="url(#clipPath2)" stroke="none"/>
    </g>
    <g fill="gray" stroke-miterlimit="1.45" transform="matrix(1,0,0,1,22,32)" stroke-linecap="butt" stroke="gray">
      <rect fill="none" x="201.5" width="197" height="358.0908" y="170.9546" clip-path="url(#clipPath2)"/>
    </g>
    <g stroke-miterlimit="1.45" font-size="13px" font-family="'Inter'" transform="matrix(1,0,0,1,22,32)" stroke-linecap="butt">
      <text x="270.5" xml:space="preserve" y="189.5484" clip-path="url(#clipPath2)" stroke="none">character</text>
    </g>
    <g fill="gray" transform="matrix(1,0,0,1,22,32)" stroke="gray">
      <line y2="196" fill="none" x1="202" clip-path="url(#clipPath2)" x2="397" y1="196"/>
    </g>
    <g stroke-linecap="round" transform="matrix(0.6667,0,0,0.6667,227.5,231.6877)" fill="silver" image-rendering="optimizeQuality" stroke-linejoin="round" stroke="silver" stroke-width="2" stroke-miterlimit="4">
      <path fill="none" d="M12.4 2.7 C13.3 1.8 14.9 1.8 15.8 2.7 L21.3 8.2 C22.2 9.1 22.2 10.7 21.3 11.6 L17.6 15.3 C16.7 16.2 15.1 16.2 14.2 15.3 L8.7 9.8 C7.8 8.9 7.8 7.3 8.7 6.4 Z" clip-path="url(#clipPath4)"/>
    </g>
    <g stroke-linecap="round" transform="matrix(0.6667,0,0,0.6667,227.5,231.6877)" fill="silver" image-rendering="optimizeQuality" stroke-linejoin="round" stroke="silver" stroke-width="2" stroke-miterlimit="4">
      <path fill="none" d="M14 7 L17 10" clip-path="url(#clipPath4)"/>
    </g>
    <g stroke-linecap="round" transform="matrix(0.6667,0,0,0.6667,227.5,231.6877)" fill="silver" image-rendering="optimizeQuality" stroke-linejoin="round" stroke="silver" stroke-width="2" stroke-miterlimit="4">
      <path fill="none" d="M9.4 10.6 L2 18 L2 21 C2 21.6 2.4 22 3 22 L7 22 L7 19 L10 19 L10 16 L12 16 L13.4 14.6" clip-path="url(#clipPath4)"/>
    </g>
    <g stroke-miterlimit="1.45" font-family="'Inter'" transform="matrix(1,0,0,1,22,32)" stroke-linecap="butt">
      <text x="227.5" xml:space="preserve" y="214.3123" clip-path="url(#clipPath2)" stroke="none">id</text>
    </g>
    <g stroke-miterlimit="1.45" font-family="'Inter'" transform="matrix(1,0,0,1,22,32)" stroke-linecap="butt">
      <text x="317.5" xml:space="preserve" y="214.3123" clip-path="url(#clipPath2)" stroke="none">INTEGER</text>
      <text x="227.5" xml:space="preserve" y="234.8347" clip-path="url(#clipPath2)" font-weight="bold" stroke="none">name</text>
      <text x="317.5" xml:space="preserve" y="234.8347" clip-path="url(#clipPath2)" stroke="none">TEXT</text>
      <text x="227.5" xml:space="preserve" y="255.3571" clip-path="url(#clipPath2)" font-weight="bold" stroke="none">status</text>
      <text x="317.5" xml:space="preserve" y="255.3571" clip-path="url(#clipPath2)" stroke="none">TEXT</text>
      <text x="227.5" xml:space="preserve" y="275.8794" clip-path="url(#clipPath2)" font-weight="bold" stroke="none">species</text>
      <text x="317.5" xml:space="preserve" y="275.8794" clip-path="url(#clipPath2)" stroke="none">TEXT</text>
      <text x="227.5" xml:space="preserve" y="296.4018" clip-path="url(#clipPath2)" stroke="none">type</text>
      <text x="317.5" xml:space="preserve" y="296.4018" clip-path="url(#clipPath2)" stroke="none">TEXT</text>
      <text x="227.5" xml:space="preserve" y="316.9241" clip-path="url(#clipPath2)" font-weight="bold" stroke="none">gender</text>
      <text x="317.5" xml:space="preserve" y="316.9241" clip-path="url(#clipPath2)" stroke="none">TEXT</text>
      <text x="227.5" xml:space="preserve" y="337.4465" clip-path="url(#clipPath2)" font-weight="bold" stroke="none">origin_name</text>
      <text x="317.5" xml:space="preserve" y="337.4465" clip-path="url(#clipPath2)" stroke="none">TEXT</text>
      <text x="227.5" xml:space="preserve" y="357.9689" clip-path="url(#clipPath2)" stroke="none">origin_url</text>
      <text x="317.5" xml:space="preserve" y="357.9689" clip-path="url(#clipPath2)" stroke="none">TEXT</text>
      <text x="227.5" xml:space="preserve" y="378.4912" clip-path="url(#clipPath2)" font-weight="bold" stroke="none">location_name</text>
      <text x="317.5" xml:space="preserve" y="378.4912" clip-path="url(#clipPath2)" stroke="none">TEXT</text>
      <text x="227.5" xml:space="preserve" y="399.0136" clip-path="url(#clipPath2)" stroke="none">location_url</text>
      <text x="317.5" xml:space="preserve" y="399.0136" clip-path="url(#clipPath2)" stroke="none">TEXT</text>
      <text x="227.5" xml:space="preserve" y="419.5359" clip-path="url(#clipPath2)" font-weight="bold" stroke="none">image</text>
      <text x="317.5" xml:space="preserve" y="419.5359" clip-path="url(#clipPath2)" stroke="none">TEXT</text>
      <text x="227.5" xml:space="preserve" y="440.0583" clip-path="url(#clipPath2)" font-weight="bold" stroke="none">episode</text>
      <text x="317.5" xml:space="preserve" y="440.0583" clip-path="url(#clipPath2)" stroke="none">TEXT</text>
      <text x="227.5" xml:space="preserve" y="460.5807" clip-path="url(#clipPath2)" font-weight="bold" stroke="none">url</text>
      <text x="317.5" xml:space="preserve" y="460.5807" clip-path="url(#clipPath2)" stroke="none">TEXT</text>
      <text x="227.5" xml:space="preserve" y="481.103" clip-path="url(#clipPath2)" font-weight="bold" stroke="none">created</text>
      <text x="317.5" xml:space="preserve" y="481.103" clip-path="url(#clipPath2)" stroke="none">TEXT</text>
      <text x="227.5" xml:space="preserve" y="501.6254" clip-path="url(#clipPath2)" stroke="none">origin_id_</text>
      <text x="317.5" xml:space="preserve" y="501.6254" clip-path="url(#clipPath2)" stroke="none">INTEGER</text>
    </g>
    <g stroke-linecap="round" transform="matrix(0.6667,0,0,0.6667,398.5,519.0007)" fill="silver" image-rendering="optimizeQuality" stroke-linejoin="round" stroke="silver" stroke-width="2" stroke-miterlimit="4">
      <path fill="none" d="M7 7 L17 7 L17 17" clip-path="url(#clipPath4)"/>
    </g>
    <g stroke-linecap="round" transform="matrix(0.6667,0,0,0.6667,398.5,519.0007)" fill="silver" image-rendering="optimizeQuality" stroke-linejoin="round" stroke="silver" stroke-width="2" stroke-miterlimit="4">
      <path fill="none" d="M7 17 L17 7" clip-path="url(#clipPath4)"/>
    </g>
    <g stroke-miterlimit="1.45" font-family="'Inter'" transform="matrix(1,0,0,1,22,32)" stroke-linecap="butt">
      <text x="227.5" xml:space="preserve" y="522.1477" clip-path="url(#clipPath2)" stroke="none">location_id_</text>
    </g>
    <g stroke-miterlimit="1.45" font-family="'Inter'" transform="matrix(1,0,0,1,22,32)" stroke-linecap="butt">
      <text x="317.5" xml:space="preserve" y="522.1477" clip-path="url(#clipPath2)" stroke="none">INTEGER</text>
    </g>
    <g stroke-linecap="round" transform="matrix(0.6667,0,0,0.6667,398.5,539.523)" fill="silver" image-rendering="optimizeQuality" stroke-linejoin="round" stroke="silver" stroke-width="2" stroke-miterlimit="4">
      <path fill="none" d="M7 7 L17 7 L17 17" clip-path="url(#clipPath7)"/>
    </g>
    <g stroke-linecap="round" transform="matrix(0.6667,0,0,0.6667,398.5,539.523)" fill="silver" image-rendering="optimizeQuality" stroke-linejoin="round" stroke="silver" stroke-width="2" stroke-miterlimit="4">
      <path fill="none" d="M7 17 L17 7" clip-path="url(#clipPath7)"/>
    </g>
    <g fill="rgb(255,255,204)" transform="matrix(1,0,0,1,22,32)" stroke="rgb(255,255,204)">
      <rect x="-10.5" width="171" height="70.7777" y="314.6111" clip-path="url(#clipPath2)" stroke="none"/>
    </g>
    <g fill="gray" stroke-miterlimit="1.45" transform="matrix(1,0,0,1,22,32)" stroke-linecap="butt" stroke="gray">
      <rect fill="none" x="-10.5" width="171" height="70.7777" y="314.6111" clip-path="url(#clipPath2)"/>
    </g>
    <g stroke-miterlimit="1.45" font-size="13px" font-family="'Inter'" transform="matrix(1,0,0,1,22,32)" stroke-linecap="butt">
      <text x="17.5" xml:space="preserve" y="333.2049" clip-path="url(#clipPath2)" stroke="none">character_episode</text>
    </g>
    <g fill="gray" transform="matrix(1,0,0,1,22,32)" stroke="gray">
      <line y2="340" fill="none" x1="-9" clip-path="url(#clipPath2)" x2="159" y1="340"/>
    </g>
    <g stroke-miterlimit="1.45" font-weight="bold" font-family="'Inter'" transform="matrix(1,0,0,1,22,32)" stroke-linecap="butt">
      <text x="-0.5" xml:space="preserve" y="357.9689" clip-path="url(#clipPath2)" stroke="none">character_id</text>
      <text x="79.5" xml:space="preserve" y="357.9689" clip-path="url(#clipPath2)" font-weight="normal" stroke="none">INTEGER</text>
    </g>
    <g stroke-linecap="round" transform="matrix(0.6667,0,0,0.6667,160.5,375.3442)" fill="silver" image-rendering="optimizeQuality" stroke-linejoin="round" stroke="silver" stroke-width="2" stroke-miterlimit="4">
      <path fill="none" d="M7 7 L17 7 L17 17" clip-path="url(#clipPath7)"/>
    </g>
    <g stroke-linecap="round" transform="matrix(0.6667,0,0,0.6667,160.5,375.3442)" fill="silver" image-rendering="optimizeQuality" stroke-linejoin="round" stroke="silver" stroke-width="2" stroke-miterlimit="4">
      <path fill="none" d="M7 17 L17 7" clip-path="url(#clipPath7)"/>
    </g>
    <g stroke-miterlimit="1.45" font-weight="bold" font-family="'Inter'" transform="matrix(1,0,0,1,22,32)" stroke-linecap="butt">
      <text x="-0.5" xml:space="preserve" y="378.4912" clip-path="url(#clipPath2)" stroke="none">episode_id</text>
    </g>
    <g stroke-miterlimit="1.45" font-family="'Inter'" transform="matrix(1,0,0,1,22,32)" stroke-linecap="butt">
      <text x="79.5" xml:space="preserve" y="378.4912" clip-path="url(#clipPath2)" stroke="none">INTEGER</text>
    </g>
    <g stroke-linecap="round" transform="matrix(0.6667,0,0,0.6667,160.5,395.8665)" fill="silver" image-rendering="optimizeQuality" stroke-linejoin="round" stroke="silver" stroke-width="2" stroke-miterlimit="4">
      <path fill="none" d="M7 7 L17 7 L17 17" clip-path="url(#clipPath4)"/>
    </g>
    <g stroke-linecap="round" transform="matrix(0.6667,0,0,0.6667,160.5,395.8665)" fill="silver" image-rendering="optimizeQuality" stroke-linejoin="round" stroke="silver" stroke-width="2" stroke-miterlimit="4">
      <path fill="none" d="M7 17 L17 7" clip-path="url(#clipPath4)"/>
    </g>
    <g fill="rgb(255,255,204)" transform="matrix(1,0,0,1,22,32)" stroke="rgb(255,255,204)">
      <rect x="214.5" width="171" height="70.7777" y="39.6111" clip-path="url(#clipPath2)" stroke="none"/>
    </g>
    <g fill="gray" stroke-miterlimit="1.45" transform="matrix(1,0,0,1,22,32)" stroke-linecap="butt" stroke="gray">
      <rect fill="none" x="214.5" width="171" height="70.7777" y="39.6111" clip-path="url(#clipPath2)"/>
    </g>
    <g stroke-miterlimit="1.45" font-size="13px" font-family="'Inter'" transform="matrix(1,0,0,1,22,32)" stroke-linecap="butt">
      <text x="242.5" xml:space="preserve" y="58.2049" clip-path="url(#clipPath2)" stroke="none">episode_character</text>
    </g>
    <g fill="gray" transform="matrix(1,0,0,1,22,32)" stroke="gray">
      <line y2="65" fill="none" x1="215" clip-path="url(#clipPath2)" x2="384" y1="65"/>
    </g>
    <g stroke-miterlimit="1.45" font-weight="bold" font-family="'Inter'" transform="matrix(1,0,0,1,22,32)" stroke-linecap="butt">
      <text x="224.5" xml:space="preserve" y="82.9689" clip-path="url(#clipPath2)" stroke="none">episode_id</text>
      <text x="304.5" xml:space="preserve" y="82.9689" clip-path="url(#clipPath2)" font-weight="normal" stroke="none">INTEGER</text>
    </g>
    <g stroke-linecap="round" transform="matrix(0.6667,0,0,0.6667,385.5,100.3442)" fill="silver" image-rendering="optimizeQuality" stroke-linejoin="round" stroke="silver" stroke-width="2" stroke-miterlimit="4">
      <path fill="none" d="M7 7 L17 7 L17 17" clip-path="url(#clipPath7)"/>
    </g>
    <g stroke-linecap="round" transform="matrix(0.6667,0,0,0.6667,385.5,100.3442)" fill="silver" image-rendering="optimizeQuality" stroke-linejoin="round" stroke="silver" stroke-width="2" stroke-miterlimit="4">
      <path fill="none" d="M7 17 L17 7" clip-path="url(#clipPath7)"/>
    </g>
    <g stroke-miterlimit="1.45" font-weight="bold" font-family="'Inter'" transform="matrix(1,0,0,1,22,32)" stroke-linecap="butt">
      <text x="224.5" xml:space="preserve" y="103.4912" clip-path="url(#clipPath2)" stroke="none">character_id</text>
    </g>
    <g stroke-miterlimit="1.45" font-family="'Inter'" transform="matrix(1,0,0,1,22,32)" stroke-linecap="butt">
      <text x="304.5" xml:space="preserve" y="103.4912" clip-path="url(#clipPath2)" stroke="none">INTEGER</text>
    </g>
    <g stroke-linecap="round" transform="matrix(0.6667,0,0,0.6667,385.5,120.8665)" fill="silver" image-rendering="optimizeQuality" stroke-linejoin="round" stroke="silver" stroke-width="2" stroke-miterlimit="4">
      <path fill="none" d="M7 7 L17 7 L17 17" clip-path="url(#clipPath4)"/>
    </g>
    <g stroke-linecap="round" transform="matrix(0.6667,0,0,0.6667,385.5,120.8665)" fill="silver" image-rendering="optimizeQuality" stroke-linejoin="round" stroke="silver" stroke-width="2" stroke-miterlimit="4">
      <path fill="none" d="M7 17 L17 7" clip-path="url(#clipPath4)"/>
    </g>
    <g fill="rgb(255,255,204)" transform="matrix(1,0,0,1,22,32)" stroke="rgb(255,255,204)">
      <rect x="443.5" width="163" height="70.7777" y="564.6111" clip-path="url(#clipPath2)" stroke="none"/>
    </g>
    <g fill="gray" stroke-miterlimit="1.45" transform="matrix(1,0,0,1,22,32)" stroke-linecap="butt" stroke="gray">
      <rect fill="none" x="443.5" width="163" height="70.7777" y="564.6111" clip-path="url(#clipPath2)"/>
    </g>
    <g stroke-miterlimit="1.45" font-size="13px" font-family="'Inter'" transform="matrix(1,0,0,1,22,32)" stroke-linecap="butt">
      <text x="471.5" xml:space="preserve" y="583.205" clip-path="url(#clipPath2)" stroke="none">location_resident</text>
    </g>
    <g fill="gray" transform="matrix(1,0,0,1,22,32)" stroke="gray">
      <line y2="590" fill="none" x1="444" clip-path="url(#clipPath2)" x2="605" y1="590"/>
    </g>
    <g stroke-miterlimit="1.45" font-weight="bold" font-family="'Inter'" transform="matrix(1,0,0,1,22,32)" stroke-linecap="butt">
      <text x="453.5" xml:space="preserve" y="607.9689" clip-path="url(#clipPath2)" stroke="none">location_id</text>
      <text x="525.5" xml:space="preserve" y="607.9689" clip-path="url(#clipPath2)" font-weight="normal" stroke="none">INTEGER</text>
    </g>
    <g stroke-linecap="round" transform="matrix(0.6667,0,0,0.6667,606.5,625.3442)" fill="silver" image-rendering="optimizeQuality" stroke-linejoin="round" stroke="silver" stroke-width="2" stroke-miterlimit="4">
      <path fill="none" d="M7 7 L17 7 L17 17" clip-path="url(#clipPath4)"/>
    </g>
    <g stroke-linecap="round" transform="matrix(0.6667,0,0,0.6667,606.5,625.3442)" fill="silver" image-rendering="optimizeQuality" stroke-linejoin="round" stroke="silver" stroke-width="2" stroke-miterlimit="4">
      <path fill="none" d="M7 17 L17 7" clip-path="url(#clipPath4)"/>
    </g>
    <g stroke-miterlimit="1.45" font-weight="bold" font-family="'Inter'" transform="matrix(1,0,0,1,22,32)" stroke-linecap="butt">
      <text x="453.5" xml:space="preserve" y="628.4912" clip-path="url(#clipPath2)" stroke="none">resident_id</text>
    </g>
    <g stroke-miterlimit="1.45" font-family="'Inter'" transform="matrix(1,0,0,1,22,32)" stroke-linecap="butt">
      <text x="525.5" xml:space="preserve" y="628.4912" clip-path="url(#clipPath2)" stroke="none">INTEGER</text>
    </g>
    <g stroke-linecap="round" transform="matrix(0.6667,0,0,0.6667,606.5,645.8665)" fill="silver" image-rendering="optimizeQuality" stroke-linejoin="round" stroke="silver" stroke-width="2" stroke-miterlimit="4">
      <path fill="none" d="M7 7 L17 7 L17 17" clip-path="url(#clipPath4)"/>
    </g>
    <g stroke-linecap="round" transform="matrix(0.6667,0,0,0.6667,606.5,645.8665)" fill="silver" image-rendering="optimizeQuality" stroke-linejoin="round" stroke="silver" stroke-width="2" stroke-miterlimit="4">
      <path fill="none" d="M7 17 L17 7" clip-path="url(#clipPath4)"/>
    </g>
    <g fill="rgb(255,255,204)" transform="matrix(1,0,0,1,22,32)" stroke="rgb(255,255,204)">
      <rect x="-12" width="174" height="193.9119" y="-21.9559" clip-path="url(#clipPath2)" stroke="none"/>
    </g>
    <g fill="gray" stroke-miterlimit="1.45" transform="matrix(1,0,0,1,22,32)" stroke-linecap="butt" stroke="gray">
      <rect fill="none" x="-12" width="174" height="193.9119" y="-21.9559" clip-path="url(#clipPath2)"/>
    </g>
    <g stroke-miterlimit="1.45" font-size="13px" font-family="'Inter'" transform="matrix(1,0,0,1,22,32)" stroke-linecap="butt">
      <text x="50" xml:space="preserve" y="-3.3621" clip-path="url(#clipPath2)" stroke="none">episode</text>
    </g>
    <g fill="gray" transform="matrix(1,0,0,1,22,32)" stroke="gray">
      <line y2="3" fill="none" x1="-11" clip-path="url(#clipPath2)" x2="161" y1="3"/>
    </g>
    <g stroke-linecap="round" transform="matrix(0.6667,0,0,0.6667,14,38.7771)" fill="silver" image-rendering="optimizeQuality" stroke-linejoin="round" stroke="silver" stroke-width="2" stroke-miterlimit="4">
      <path fill="none" d="M12.4 2.7 C13.3 1.8 14.9 1.8 15.8 2.7 L21.3 8.2 C22.2 9.1 22.2 10.7 21.3 11.6 L17.6 15.3 C16.7 16.2 15.1 16.2 14.2 15.3 L8.7 9.8 C7.8 8.9 7.8 7.3 8.7 6.4 Z" clip-path="url(#clipPath4)"/>
    </g>
    <g stroke-linecap="round" transform="matrix(0.6667,0,0,0.6667,14,38.7771)" fill="silver" image-rendering="optimizeQuality" stroke-linejoin="round" stroke="silver" stroke-width="2" stroke-miterlimit="4">
      <path fill="none" d="M14 7 L17 10" clip-path="url(#clipPath4)"/>
    </g>
    <g stroke-linecap="round" transform="matrix(0.6667,0,0,0.6667,14,38.7771)" fill="silver" image-rendering="optimizeQuality" stroke-linejoin="round" stroke="silver" stroke-width="2" stroke-miterlimit="4">
      <path fill="none" d="M9.4 10.6 L2 18 L2 21 C2 21.6 2.4 22 3 22 L7 22 L7 19 L10 19 L10 16 L12 16 L13.4 14.6" clip-path="url(#clipPath4)"/>
    </g>
    <g stroke-miterlimit="1.45" font-family="'Inter'" transform="matrix(1,0,0,1,22,32)" stroke-linecap="butt">
      <text x="14" xml:space="preserve" y="21.4018" clip-path="url(#clipPath2)" stroke="none">id</text>
    </g>
    <g stroke-miterlimit="1.45" font-family="'Inter'" transform="matrix(1,0,0,1,22,32)" stroke-linecap="butt">
      <text x="97" xml:space="preserve" y="21.4018" clip-path="url(#clipPath2)" stroke="none">INTEGER</text>
      <text x="14" xml:space="preserve" y="41.9241" clip-path="url(#clipPath2)" font-weight="bold" stroke="none">name</text>
      <text x="97" xml:space="preserve" y="41.9241" clip-path="url(#clipPath2)" stroke="none">TEXT</text>
      <text x="14" xml:space="preserve" y="62.4465" clip-path="url(#clipPath2)" font-weight="bold" stroke="none">air_date</text>
      <text x="97" xml:space="preserve" y="62.4465" clip-path="url(#clipPath2)" stroke="none">TEXT</text>
      <text x="14" xml:space="preserve" y="82.9689" clip-path="url(#clipPath2)" font-weight="bold" stroke="none">episode</text>
      <text x="97" xml:space="preserve" y="82.9689" clip-path="url(#clipPath2)" stroke="none">TEXT</text>
      <text x="14" xml:space="preserve" y="103.4912" clip-path="url(#clipPath2)" font-weight="bold" stroke="none">characters</text>
      <text x="97" xml:space="preserve" y="103.4912" clip-path="url(#clipPath2)" stroke="none">TEXT</text>
      <text x="14" xml:space="preserve" y="124.0136" clip-path="url(#clipPath2)" font-weight="bold" stroke="none">url</text>
      <text x="97" xml:space="preserve" y="124.0136" clip-path="url(#clipPath2)" stroke="none">TEXT</text>
      <text x="14" xml:space="preserve" y="144.5359" clip-path="url(#clipPath2)" font-weight="bold" stroke="none">created</text>
      <text x="97" xml:space="preserve" y="144.5359" clip-path="url(#clipPath2)" stroke="none">TEXT</text>
      <text x="14" xml:space="preserve" y="165.0583" clip-path="url(#clipPath2)" font-weight="bold" stroke="none">air_date_iso_</text>
      <text x="97" xml:space="preserve" y="165.0583" clip-path="url(#clipPath2)" stroke="none">TEXT</text>
    </g>
    <g fill="rgb(255,255,204)" transform="matrix(1,0,0,1,22,32)" stroke="rgb(255,255,204)">
      <rect x="448" width="154" height="173.3895" y="263.3052" clip-path="url(#clipPath2)" stroke="none"/>
    </g>
    <g fill="gray" stroke-miterlimit="1.45" transform="matrix(1,0,0,1,22,32)" stroke-linecap="butt" stroke="gray">
      <rect fill="none" x="448" width="154" height="173.3895" y="263.3052" clip-path="url(#clipPath2)"/>
    </g>
    <g stroke-miterlimit="1.45" font-size="13px" font-family="'Inter'" transform="matrix(1,0,0,1,22,32)" stroke-linecap="butt">
      <text x="500.5" xml:space="preserve" y="281.899" clip-path="url(#clipPath2)" stroke="none">location</text>
    </g>
    <g fill="gray" transform="matrix(1,0,0,1,22,32)" stroke="gray">
      <line y2="289" fill="none" x1="449" clip-path="url(#clipPath2)" x2="601" y1="289"/>
    </g>
    <g stroke-linecap="round" transform="matrix(0.6667,0,0,0.6667,474,324.0383)" fill="silver" image-rendering="optimizeQuality" stroke-linejoin="round" stroke="silver" stroke-width="2" stroke-miterlimit="4">
      <path fill="none" d="M12.4 2.7 C13.3 1.8 14.9 1.8 15.8 2.7 L21.3 8.2 C22.2 9.1 22.2 10.7 21.3 11.6 L17.6 15.3 C16.7 16.2 15.1 16.2 14.2 15.3 L8.7 9.8 C7.8 8.9 7.8 7.3 8.7 6.4 Z" clip-path="url(#clipPath4)"/>
    </g>
    <g stroke-linecap="round" transform="matrix(0.6667,0,0,0.6667,474,324.0383)" fill="silver" image-rendering="optimizeQuality" stroke-linejoin="round" stroke="silver" stroke-width="2" stroke-miterlimit="4">
      <path fill="none" d="M14 7 L17 10" clip-path="url(#clipPath4)"/>
    </g>
    <g stroke-linecap="round" transform="matrix(0.6667,0,0,0.6667,474,324.0383)" fill="silver" image-rendering="optimizeQuality" stroke-linejoin="round" stroke="silver" stroke-width="2" stroke-miterlimit="4">
      <path fill="none" d="M9.4 10.6 L2 18 L2 21 C2 21.6 2.4 22 3 22 L7 22 L7 19 L10 19 L10 16 L12 16 L13.4 14.6" clip-path="url(#clipPath4)"/>
    </g>
    <g stroke-miterlimit="1.45" font-family="'Inter'" transform="matrix(1,0,0,1,22,32)" stroke-linecap="butt">
      <text x="474" xml:space="preserve" y="306.663" clip-path="url(#clipPath2)" stroke="none">id</text>
    </g>
    <g stroke-miterlimit="1.45" font-family="'Inter'" transform="matrix(1,0,0,1,22,32)" stroke-linecap="butt">
      <text x="537" xml:space="preserve" y="306.663" clip-path="url(#clipPath2)" stroke="none">INTEGER</text>
      <text x="474" xml:space="preserve" y="327.1853" clip-path="url(#clipPath2)" font-weight="bold" stroke="none">name</text>
      <text x="537" xml:space="preserve" y="327.1853" clip-path="url(#clipPath2)" stroke="none">TEXT</text>
      <text x="474" xml:space="preserve" y="347.7077" clip-path="url(#clipPath2)" stroke="none">type</text>
      <text x="537" xml:space="preserve" y="347.7077" clip-path="url(#clipPath2)" stroke="none">TEXT</text>
      <text x="474" xml:space="preserve" y="368.23" clip-path="url(#clipPath2)" stroke="none">dimension</text>
      <text x="537" xml:space="preserve" y="368.23" clip-path="url(#clipPath2)" stroke="none">TEXT</text>
      <text x="474" xml:space="preserve" y="388.7524" clip-path="url(#clipPath2)" stroke="none">residents</text>
      <text x="537" xml:space="preserve" y="388.7524" clip-path="url(#clipPath2)" stroke="none">TEXT</text>
      <text x="474" xml:space="preserve" y="409.2747" clip-path="url(#clipPath2)" font-weight="bold" stroke="none">url</text>
      <text x="537" xml:space="preserve" y="409.2747" clip-path="url(#clipPath2)" stroke="none">TEXT</text>
      <text x="474" xml:space="preserve" y="429.7971" clip-path="url(#clipPath2)" font-weight="bold" stroke="none">created</text>
      <text x="537" xml:space="preserve" y="429.7971" clip-path="url(#clipPath2)" stroke="none">TEXT</text>
    </g>
    <g fill="gray" stroke-miterlimit="1.45" transform="matrix(1,0,0,1,22,32)" stroke-linecap="butt" stroke="gray">
      <path fill="none" d="M160.54 350 L193.46 350" clip-path="url(#clipPath2)"/>
    </g>
    <g fill="gray" stroke-miterlimit="1.45" transform="matrix(1,0,0,1,22,32)" stroke-linecap="butt" stroke="gray">
      <path d="M201.46 350 L189.46 345 L192.46 350 L189.46 355 Z" stroke="none" clip-path="url(#clipPath2)"/>
      <path fill="none" d="M300 110.4184 L300 162.9251" clip-path="url(#clipPath2)"/>
      <path d="M300 170.9251 L305 158.9251 L300 161.9251 L295 158.9251 Z" clip-path="url(#clipPath2)" stroke="none"/>
      <path fill="none" d="M443.465 600 L300 600 L300 537.08" clip-path="url(#clipPath2)"/>
      <path d="M300 529.08 L295 541.08 L300 538.08 L305 541.08 Z" clip-path="url(#clipPath2)" stroke="none"/>
      <path fill="none" d="M75 314.5763 L75 179.9908" clip-path="url(#clipPath2)"/>
      <path d="M75 171.9908 L70 183.9908 L75 180.9908 L80 183.9908 Z" clip-path="url(#clipPath2)" stroke="none"/>
      <path fill="none" d="M214.4744 75 L170.0256 75" clip-path="url(#clipPath2)"/>
      <path d="M162.0256 75 L174.0256 80 L171.0256 75 L174.0256 70 Z" clip-path="url(#clipPath2)" stroke="none"/>
      <path fill="none" d="M398.5483 350 L439.9517 350" clip-path="url(#clipPath2)"/>
      <path d="M447.9517 350 L435.9517 345 L438.9517 350 L435.9517 355 Z" clip-path="url(#clipPath2)" stroke="none"/>
      <path fill="none" d="M525 564.5799 L525 444.726" clip-path="url(#clipPath2)"/>
      <path d="M525 436.726 L520 448.726 L525 445.726 L530 448.726 Z" clip-path="url(#clipPath2)" stroke="none"/>
    </g>
  </g>
</svg>
